<?xml version="1.0" encoding="UTF-8" standalone="no"?>
<!-- Created with Inkscape (http://www.inkscape.org/) -->

<svg
   version="1.1"
   id="svg1"
   width="500"
   height="500"
   viewBox="0 0 500 500"
   sodipodi:docname="logotyp treningszpile.pdf"
   xmlns:inkscape="http://www.inkscape.org/namespaces/inkscape"
   xmlns:sodipodi="http://sodipodi.sourceforge.net/DTD/sodipodi-0.dtd"
   xmlns="http://www.w3.org/2000/svg"
   xmlns:svg="http://www.w3.org/2000/svg">
  <defs
     id="defs1">
    <clipPath
       clipPathUnits="userSpaceOnUse"
       id="clipPath4">
      <path
         d="M 0,0 H 499.99998 V 499.99998 H 0 Z"
         clip-rule="evenodd"
         id="path4" />
    </clipPath>
    <clipPath
       clipPathUnits="userSpaceOnUse"
       id="clipPath15">
      <path
         d="m 520,0 h 500 V 499.99998 H 520 Z"
         clip-rule="evenodd"
         id="path15" />
    </clipPath>
  </defs>
  <sodipodi:namedview
     id="namedview1"
     pagecolor="#ffffff"
     bordercolor="#000000"
     borderopacity="0.25"
     inkscape:showpageshadow="2"
     inkscape:pageopacity="0.0"
     inkscape:pagecheckerboard="0"
     inkscape:deskcolor="#d1d1d1">
    <inkscape:page
       x="0"
       y="0"
       inkscape:label="1"
       id="page1"
       width="500"
       height="500"
       margin="0"
       bleed="0" />
    <inkscape:page
       x="520"
       y="0"
       inkscape:label="2"
       id="page11"
       width="500"
       height="499.99999" />
  </sodipodi:namedview>
  <g
     id="g1"
     inkscape:groupmode="layer"
     inkscape:label="1" />
  <g
     id="g12"
     inkscape:groupmode="layer"
     inkscape:label="2">
    <g
       id="g13">
      <path
         id="path13"
         d="M 0,0 H 500 V 500 H 0 Z"
         style="fill:#ffffff;fill-opacity:1;fill-rule:nonzero;stroke:none"
         transform="translate(520)" />
      <g
         id="g14"
         clip-path="url(#clipPath15)">
        <path
           id="path14"
           d="M 0,0 H 500 V 500 H 0 Z"
           style="fill:#e7e5df;fill-opacity:1;fill-rule:nonzero;stroke:none"
           transform="translate(520)" />
      </g>
      <g
         id="g15">
        <g
           id="g16">
          <path
             id="path16"
             d="m 12.719146,-16.767471 c -0.835938,0.574218 -2.046875,0.859375 -3.6406252,0.859375 -2.2304688,-0.03906 -4.1093751,-0.773438 -5.6406252,-2.203125 -1.5234376,-1.437501 -2.2812501,-3.207032 -2.2812501,-5.312501 0,-3.050781 1.2031251,-5.65625 3.6093752,-7.8125 2.4062501,-2.15625 5.4414063,-3.238281 9.1093753,-3.25 3.113281,-0.01953 6.050782,0.710937 8.8125,2.1875 2.757813,1.480469 5.175782,2.964844 7.250001,4.453125 1.445312,1.09375 2.785156,1.09375 4.015625,0 0.34375,-0.3125 0.640625,-0.34375 0.890625,-0.09375 0.25,0.242188 0.222656,0.5 -0.07813,0.78125 l -4.046875,3.40625 c -1.8125,1.3125 -3.882813,1.203125 -6.203126,-0.328125 -2.25,-1.5625 -4.617187,-3.003906 -7.09375,-4.328125 -2.480469,-1.320312 -4.75,-1.984375 -6.8125,-1.984375 -2.4179689,0 -4.3437503,0.6875 -5.7812503,2.0625 -1.4375001,1.367188 -2.1679689,2.921875 -2.1875001,4.671875 -0.074219,4.136719 2.0078126,6.417969 6.2500002,6.843751 1.2070312,0.136718 2.2968752,-0.140625 3.2656252,-0.828125 0.351562,-0.21875 0.613281,-0.1875 0.78125,0.09375 0.175781,0.28125 0.101563,0.542968 -0.21875,0.78125 z M 2.4378956,-9.2518461 c 1.8828125,-1.5195309 3.4921876,-2.5546879 4.8281252,-3.1093749 1.9140625,-0.820313 3.3984372,-0.679688 4.4531252,0.421875 2.925781,3.0234374 5.375,5.21875 7.34375,6.5937501 1.96875,1.375 3.671875,2.2148438 5.109375,2.5156251 1.437501,0.3046875 2.703126,0.203125 3.796876,-0.296875 1.101562,-0.5078126 2.265625,-1.1328126 3.484375,-1.8750001 0.46875,-0.3125 0.800781,-0.328125 1,-0.046875 0.207031,0.2734375 0.128906,0.5546875 -0.234375,0.84375 -1.511719,1.2500001 -3.101563,2.3281251 -4.765625,3.23437515 -1.667969,0.89843754 -3.496094,1.35156256 -5.484376,1.37500006 -1.992187,0.03125 -4.1875,-0.50781252 -6.59375,-1.62500011 -2.40625,-1.125 -5.101563,-3.0976563 -8.0781252,-5.9218752 -1.0000001,-0.96875 -1.9804689,-1.4414063 -2.9375002,-1.4218751 -0.5234375,0 -1.0703125,0.140625 -1.640625,0.4218751 -0.3867188,0.1796875 -0.6484376,0.125 -0.7812501,-0.1562501 -0.125,-0.2890625 0.039063,-0.609375 0.5000001,-0.953125 z M 18.500396,-26.251847 c -1.15625,0.898438 -1.46875,1.84375 -0.9375,2.84375 0.539063,0.992188 1.691407,2.164063 3.453125,3.515625 3.050782,2.367188 4.453126,4.609376 4.203126,6.734376 -0.242188,2.117187 -2.386719,3.9296874 -6.437501,5.4375 -0.335937,0.1484375 -0.578125,0.1054687 -0.734375,-0.125 -0.148437,-0.2382813 -0.07031,-0.4570313 0.234375,-0.6562501 1.539063,-0.9882813 2.101563,-2.0546879 1.6875,-3.2031249 -0.417968,-1.144531 -1.601562,-2.460938 -3.546875,-3.953125 -2.304687,-1.71875 -3.558594,-3.539063 -3.765625,-5.468751 -0.210938,-1.925781 1.53125,-3.878906 5.21875,-5.859375 0.382813,-0.207031 0.671875,-0.203125 0.859375,0.01563 0.1875,0.210938 0.109375,0.449219 -0.234375,0.71875 z m 26.914064,8.562501 -0.03125,11.4375 c 0,0.5000001 0.125,0.8242188 0.375,0.9687501 l 1.703125,0.984375 c 0.363281,0.21875 0.914062,-0.1640625 1.65625,-1.15625 0.15625,-0.1953125 0.347656,-0.2382813 0.578125,-0.125 0.238281,0.1171875 0.242188,0.3125 0.01563,0.59375 -1.65625,1.8437501 -2.921875,3.6562501 -3.796875,5.43750021 -0.273438,0.35156252 -0.5625,0.35156252 -0.875,0 -0.886719,-1.01953129 -1.710938,-1.79687511 -2.46875,-2.32812511 -0.761719,-0.5390625 -1.882813,-0.984375 -3.359375,-1.328125 -0.28125,-0.082031 -0.421875,-0.2070313 -0.421875,-0.3750001 0,-0.1757812 0.09766,-0.3046875 0.296875,-0.390625 1.050781,-0.1640625 1.570312,-1.0664063 1.5625,-2.7031251 v -9.984375 c 0,-1.601563 -0.304688,-2.585938 -0.90625,-2.953126 -0.6875,-0.445312 -1.25,-0.28125 -1.6875,0.5 -0.179688,0.335938 -0.375,0.417969 -0.59375,0.250001 -0.21875,-0.175782 -0.210938,-0.457032 0.03125,-0.843751 0.445312,-0.71875 0.878906,-1.453125 1.296875,-2.203125 0.414062,-0.757812 0.847656,-1.519531 1.296875,-2.28125 0.257812,-0.46875 0.613281,-0.550781 1.0625,-0.25 2.300781,1.117188 3.679687,2.53125 4.140625,4.25 0.05078,0.15625 0.144531,0.257813 0.28125,0.296875 0.144531,0.03125 0.273437,-0.01953 0.390625,-0.15625 l 3.625,-4.1875 c 0.09375,-0.09375 0.203125,-0.132812 0.328125,-0.125 0.125,0.01172 0.226563,0.07813 0.3125,0.203125 l 2.46875,4.734375 c 0.0625,0.148438 0.04687,0.28125 -0.04687,0.406251 l -2.828125,3.40625 c -0.105469,0.105468 -0.226562,0.152343 -0.359375,0.140625 -0.136719,-0.01953 -0.230469,-0.09375 -0.28125,-0.21875 l -1.90625,-3.531251 c -0.0625,-0.101562 -0.164063,-0.164062 -0.296875,-0.1875 -0.136719,-0.01953 -0.257813,0.02734 -0.359375,0.140625 l -1.109375,1.343751 c -0.0625,0.0625 -0.09375,0.140625 -0.09375,0.234375 z M 61.707429,0.65440432 C 61.676179,0.27940431 61.473054,-0.00184571 61.098054,-0.18934571 60.730867,-0.37684572 60.426179,-0.56434573 60.176179,-0.75184574 58.371492,-1.9784083 57.098054,-3.4784084 56.348054,-5.2518459 c -0.75,-1.7695313 -1.171875,-3.6445314 -1.265625,-5.6250001 -0.1875,-4.476563 1.023438,-7.890625 3.640625,-10.234376 0.925781,-0.832031 1.992188,-1.507812 3.203125,-2.03125 1.207032,-0.53125 2.445313,-0.960937 3.71875,-1.296875 0.394532,-0.08203 0.6875,0.117188 0.875,0.59375 l 3.406251,7.968751 c 0.15625,0.429687 0.09766,0.695312 -0.171875,0.796875 h -0.04687 l -9.671876,3.75 c -0.1875,0.09375 -0.265625,0.246094 -0.234375,0.453125 0.769531,3.4921875 2.054688,5.7304688 3.859375,6.7187501 1.8125,0.9804688 3.613282,1.1210938 5.406251,0.421875 0.320312,-0.1328125 0.523437,-0.109375 0.609375,0.078125 0.08203,0.1875 0.02344,0.3281251 -0.171875,0.4218751 -1.28125,0.6484375 -2.5,1.3085938 -3.656251,1.984375 -1.15625,0.67968757 -2.1875,1.3828126 -3.09375,2.12500013 -0.148437,0.09375 -0.359375,0.12500001 -0.640625,0.09375 -0.273437,-0.03125 -0.40625,-0.13671875 -0.40625,-0.31250001 z m -2.1875,-13.32812532 c 0.0078,0.125 0.0625,0.226562 0.15625,0.296875 0.101563,0.07422 0.222656,0.07813 0.359375,0.01563 l 5.03125,-1.890625 c 0.226563,-0.09375 0.296875,-0.257813 0.203125,-0.5 l -2.875,-7.046876 c -0.136718,-0.34375 -0.417968,-0.390625 -0.84375,-0.140625 -0.917969,0.53125 -1.542969,1.75 -1.875,3.656251 -0.324219,1.90625 -0.375,3.777343 -0.15625,5.609375 z m 21.058595,4.1562499 c -0.01172,2.5312501 0.460937,3.996094 1.421875,4.3906252 0.113281,0.074219 0.171875,0.1796875 0.171875,0.3125 0,0.1367188 -0.05859,0.234375 -0.171875,0.296875 -1.417969,1.0742188 -2.5625,2.4960939 -3.4375,4.26562523 -0.105469,0.125 -0.230469,0.1875 -0.375,0.1875 -0.136719,0 -0.25,-0.0625 -0.34375,-0.1875 -0.875,-1.76953133 -2.070313,-3.17968763 -3.578125,-4.23437523 -0.09375,-0.0625 -0.140625,-0.1640625 -0.140625,-0.3125 0,-0.1445312 0.05078,-0.2539062 0.15625,-0.328125 1.019531,-0.3945312 1.53125,-1.8593751 1.53125,-4.3906252 v -7.8281249 c 0,-1.601563 -0.296875,-2.585938 -0.890625,-2.953126 -0.6875,-0.457031 -1.257813,-0.289062 -1.703125,0.500001 -0.167969,0.324218 -0.367188,0.402343 -0.593751,0.234375 -0.21875,-0.175782 -0.210937,-0.453125 0.03125,-0.828126 0.457032,-0.71875 0.894532,-1.453125 1.312501,-2.203125 0.414062,-0.757812 0.84375,-1.519531 1.28125,-2.28125 0.25,-0.457031 0.601562,-0.550781 1.0625,-0.28125 l 0.03125,0.03125 c 2.3125,1.15625 3.691406,2.578125 4.140625,4.265625 0.03125,0.167969 0.109375,0.265625 0.234375,0.296875 0.132812,0.03125 0.265625,0 0.390625,-0.09375 0.863281,-0.71875 1.75,-1.476562 2.65625,-2.28125 0.914062,-0.800781 1.535156,-1.539062 1.859375,-2.21875 0.175781,-0.40625 0.460938,-0.394531 0.859375,0.03125 0.9375,0.992188 1.738281,1.777344 2.40625,2.359375 0.675781,0.574219 1.816406,1.007813 3.421875,1.296875 0.28125,0.0625 0.421875,0.183594 0.421875,0.359375 0.0078,0.179688 -0.08594,0.296875 -0.28125,0.359375 -0.40625,0.15625 -0.773437,0.429688 -1.09375,0.812501 -0.3125,0.386718 -0.46875,1.027343 -0.46875,1.921875 v 9.984375 c 0,1.6054688 0.300782,2.5898439 0.90625,2.9531251 0.6875,0.4296875 1.242188,0.2578125 1.671875,-0.515625 0.164063,-0.3007813 0.363282,-0.3671875 0.59375,-0.203125 0.226563,0.1679688 0.222657,0.4375 -0.01563,0.8125 -0.46875,0.7421876 -0.914062,1.4843751 -1.328125,2.2343751 -0.417968,0.7421876 -0.839843,1.48046883 -1.265625,2.21875011 -0.28125,0.43750002 -0.636719,0.53906249 -1.0625,0.31250002 -2.855469,-1.38281256 -4.28125,-3.43750013 -4.28125,-6.15625023 l 0.01563,-12.0781251 c 0,-0.476563 -0.117187,-0.785157 -0.34375,-0.921875 h -0.03125 v -0.04687 l -2,-1.656251 c -0.179688,-0.125 -0.359375,-0.128906 -0.546875,-0.01563 l -2.453125,1.906251 c -0.117188,0.08594 -0.171875,0.179687 -0.171875,0.28125 z M 99.40665,-5.5487209 99.2504,-18.470596 c 0,-0.300782 -0.05469,-0.546875 -0.15625,-0.734376 -0.375,-0.613281 -0.695313,-0.765625 -0.953125,-0.453125 l -0.953125,0.968751 c -0.250001,0.28125 -0.492188,0.3125 -0.718751,0.09375 -0.230468,-0.21875 -0.195312,-0.523438 0.109375,-0.921876 0.687501,-0.863281 1.304688,-1.726562 1.859376,-2.59375 0.550781,-0.863281 1.117187,-1.71875 1.70312,-2.5625 0.25,-0.300781 0.53907,-0.296875 0.875,0.01563 0.65625,0.804688 1.29688,1.511719 1.92188,2.125 0.63281,0.605469 1.53516,1.242188 2.70312,1.90625 0.32032,0.136719 0.46094,0.292969 0.42188,0.46875 -0.0312,0.167969 -0.13672,0.257813 -0.3125,0.265625 -0.40625,0.15625 -0.76563,0.429688 -1.07813,0.8125 -0.3125,0.386719 -0.46875,1.027344 -0.46875,1.921876 v 9.984375 c 0,1.6054688 0.29688,2.5898439 0.89063,2.9531251 0.6875,0.40625 1.25391,0.234375 1.70312,-0.515625 0.15625,-0.3007813 0.34766,-0.3671875 0.57813,-0.203125 0.22656,0.1679687 0.22266,0.4375 -0.0156,0.8125 -0.46875,0.7421876 -0.91406,1.4843751 -1.32812,2.2343751 -0.40625,0.7421875 -0.82422,1.48046883 -1.25,2.21875011 -0.29297,0.43750002 -0.66406,0.53125002 -1.10938,0.28125001 -1.40625,-0.67578128 -2.46875,-1.50000006 -3.1875,-2.46875012 -0.718745,-0.9765625 -1.07812,-2.2070313 -1.07812,-3.6875001 z m 3.42187,-28.0000011 c 1.75,0 2.54688,0.84375 2.39063,2.53125 -0.10547,0.84375 -0.64063,1.699219 -1.60938,2.5625 -0.96093,0.855469 -1.72656,1.273438 -2.29687,1.25 -0.5625,0 -0.99609,-0.445312 -1.29688,-1.34375 -0.292964,-0.894531 -0.406245,-1.71875 -0.343745,-2.46875 0.03906,-0.726563 0.390625,-1.332031 1.046875,-1.8125 0.65625,-0.476563 1.35937,-0.71875 2.10937,-0.71875 z m 15.28126,25.0312509 c -0.0117,2.5312501 0.46093,3.996094 1.42187,4.3906252 0.11328,0.074219 0.17188,0.1796875 0.17188,0.3125 0,0.1367188 -0.0586,0.234375 -0.17188,0.296875 -1.41797,1.0742188 -2.5625,2.4960939 -3.4375,4.26562523 -0.10547,0.125 -0.23047,0.1875 -0.375,0.1875 -0.13672,0 -0.25,-0.0625 -0.34375,-0.1875 -0.875,-1.76953133 -2.07031,-3.17968763 -3.57812,-4.23437523 -0.0937,-0.0625 -0.14063,-0.1640625 -0.14063,-0.3125 0,-0.1445312 0.0508,-0.2539062 0.15625,-0.328125 1.01953,-0.3945312 1.53125,-1.8593751 1.53125,-4.3906252 v -7.8281249 c 0,-1.601563 -0.29687,-2.585938 -0.89062,-2.953126 -0.6875,-0.457031 -1.25782,-0.289062 -1.70313,0.500001 -0.16797,0.324218 -0.36719,0.402343 -0.59375,0.234375 -0.21875,-0.175782 -0.21094,-0.453125 0.0312,-0.828126 0.45703,-0.71875 0.89453,-1.453125 1.3125,-2.203125 0.41406,-0.757812 0.84375,-1.519531 1.28125,-2.28125 0.25,-0.457031 0.60156,-0.550781 1.0625,-0.28125 l 0.0312,0.03125 c 2.3125,1.15625 3.69141,2.578125 4.14063,4.265625 0.0312,0.167969 0.10937,0.265625 0.23437,0.296875 0.13281,0.03125 0.26563,0 0.39063,-0.09375 0.86328,-0.71875 1.75,-1.476562 2.65625,-2.28125 0.91406,-0.800781 1.53515,-1.539062 1.85937,-2.21875 0.17578,-0.40625 0.46094,-0.394531 0.85938,0.03125 0.9375,0.992188 1.73828,1.777344 2.40625,2.359375 0.67578,0.574219 1.8164,1.007813 3.42187,1.296875 0.28125,0.0625 0.42188,0.183594 0.42188,0.359375 0.008,0.179688 -0.0859,0.296875 -0.28125,0.359375 -0.40625,0.15625 -0.77344,0.429688 -1.09375,0.812501 -0.3125,0.386718 -0.46875,1.027343 -0.46875,1.921875 v 9.984375 c 0,1.6054688 0.30078,2.5898439 0.90625,2.9531251 0.6875,0.4296875 1.24218,0.2578125 1.67187,-0.515625 0.16406,-0.3007813 0.36328,-0.3671875 0.59375,-0.203125 0.22656,0.1679688 0.22266,0.4375 -0.0156,0.8125 -0.46875,0.7421876 -0.91407,1.4843751 -1.32813,2.2343751 -0.41797,0.7421876 -0.83984,1.48046883 -1.26562,2.21875011 -0.28125,0.43750002 -0.63672,0.53906249 -1.0625,0.31250002 -2.85547,-1.38281256 -4.28125,-3.43750013 -4.28125,-6.15625023 l 0.0156,-12.0781251 c 0,-0.476563 -0.11719,-0.785157 -0.34375,-0.921875 h -0.0312 v -0.04687 l -2,-1.656251 c -0.17969,-0.125 -0.35937,-0.128906 -0.54687,-0.01563 l -2.45313,1.906251 c -0.11719,0.08594 -0.17187,0.179687 -0.17187,0.28125 z m 28.96875,5.6093753 c -1.125,0.5234375 -2.48438,1.1015625 -4.07813,1.734375 -1.58594,0.63671882 -2.82422,1.28515635 -3.71875,1.95312513 -0.33594,0.21875001 -0.57422,0.30078127 -0.71875,0.24999997 -0.13672,-0.0429687 -0.1875,-0.17187497 -0.15625,-0.39062498 0.008,-0.28125001 -0.11719,-0.75781253 -0.375,-1.43750006 -0.26172,-0.67578126 -0.57031,-1.28515626 -0.92187,-1.82812506 -1.01172,-1.4570313 -1.66797,-2.7890626 -1.96875,-4.0000002 -0.29297,-1.2070313 -0.53125,-2.6484376 -0.71875,-4.328125 -0.17969,-1.601563 0.17578,-3.117188 1.0625,-4.546875 0.89453,-1.425782 2.0625,-2.695313 3.5,-3.812501 0.91406,-0.695312 1.77343,-1.429687 2.57812,-2.203125 0.80078,-0.769531 1.5,-1.707031 2.09375,-2.8125 0.26953,-0.476562 0.625,-0.492187 1.0625,-0.04687 2.36328,2.679688 4.87891,4.292969 7.54688,4.84375 0.69531,0.179688 0.84765,0.429688 0.45312,0.750001 -1.44922,2.125 -2.09375,4.292968 -1.9375,6.5 0.15625,2.210937 0.66406,4.4492187 1.53125,6.7187501 v 0.015625 l 0.0312,0.03125 c 1.41406,5.16796893 0.9375,8.9140628 -1.4375,11.2500004 -2.36719,2.3437501 -4.71094,3.6289064 -7.03125,3.8593752 -4.03125,0.3945313 -6.69922,-0.640625 -8,-3.1093751 -0.30469,-0.5625001 -0.30859,-1.1015626 -0.0156,-1.6093751 0.28906,-0.5 0.72265,-0.796875 1.29687,-0.890625 1.11328,-0.1875 2.09375,0.5351562 2.9375,2.1718751 1.16406,2.34375 2.86719,3.0546876 5.10938,2.140625 1.91406,-0.8046875 3.01562,-2.1875001 3.29687,-4.1562501 0.28125,-1.9609376 0,-4.21093771 -0.84375,-6.7656253 0,-0.03125 -0.0117,-0.050781 -0.0312,-0.0625 l -0.0156,-0.03125 c -0.10547,-0.2265625 -0.28125,-0.2890625 -0.53125,-0.1875 z m 1.375,-13.1562502 c -0.88672,-0.363282 -1.9336,-0.921875 -3.14063,-1.671875 -1.21094,-0.757813 -2.10156,-1.398438 -2.67187,-1.921876 l -0.0469,-0.01563 c 0,-0.01953 0,-0.03516 0,-0.04687 -0.5625,-0.832031 -1.0625,-0.90625 -1.5,-0.21875 -1.66797,2.492188 -2.32812,5.234376 -1.98437,8.234376 0.23828,1.9999999 0.67187,3.84375 1.29687,5.53125 0.625,1.6796876 1.59766,2.7773439 2.92188,3.2968752 l 0.0312,0.015625 h 0.0156 c 0.88281,0.2421875 2.02344,-0.085937 3.42188,-0.9843751 0.15625,-0.082031 0.21093,-0.234375 0.17187,-0.453125 -0.66797,-1.8007813 -0.91797,-3.6328126 -0.75,-5.5000002 0.16406,-1.8632809 0.96094,-3.7656249 2.39063,-5.7031249 0.14453,-0.25 0.0937,-0.4375 -0.15625,-0.5625 z m 30.36328,-13.171876 c 2.19531,-0.570312 4.21875,-0.4375 6.0625,0.40625 1.23828,0.59375 2.20312,1.421875 2.89062,2.484375 0.69532,1.054688 0.97266,2.230469 0.82813,3.53125 -0.13672,1.304688 -0.5625,2.273438 -1.28125,2.90625 -0.71875,0.625 -1.30859,1.117188 -1.76563,1.468751 -0.44921,0.34375 -0.875,0.703125 -1.28125,1.078125 -0.80468,0.75 -0.87109,1.429687 -0.20312,2.03125 2.125,1.835937 3.34766,3.382812 3.67187,4.640625 0.32032,1.2617187 0.0977,2.3710937 -0.67187,3.328125 -1.0625,1.3242188 -2.19922,2.5781251 -3.40625,3.7656251 -1.19922,1.1875001 -2.39063,2.3867189 -3.57813,3.59375019 -0.58593,0.56250003 -0.9375,0.53125003 -1.0625,-0.09375 -0.19921,-0.86328129 -1.12109,-1.61718759 -2.76562,-2.26562509 -1.64844,-0.65625 -3.38281,-1.2851563 -5.20313,-1.8906251 -0.33593,-0.125 -0.35546,-0.359375 -0.0625,-0.703125 0.41407,-0.4375 0.85157,-0.875 1.3125,-1.3125001 0.45704,-0.4453125 0.91407,-0.8828125 1.375,-1.3125 0.70704,-0.65625 0.94532,-1.2382813 0.71875,-1.7500001 -0.23046,-0.5078125 -0.65234,-1.0859379 -1.26562,-1.7343749 -1.54297,-1.601563 -2.28906,-3.101563 -2.23438,-4.5 0.0625,-1.40625 0.57032,-2.640625 1.53125,-3.703126 0.89454,-1 1.90625,-1.910156 3.03125,-2.734375 1.125,-0.820312 2.1875,-1.742187 3.1875,-2.765625 0.125,-0.113281 0.28907,-0.07813 0.5,0.109375 2.10157,1.875 3.85938,2.824219 5.26563,2.84375 1.40625,0.01172 2.32031,-0.410156 2.75,-1.265625 0.42578,-0.863281 0.38281,-1.757812 -0.125,-2.6875 -0.5,-0.9375 -1.3125,-1.710937 -2.4375,-2.328125 -1.71875,-0.851562 -3.60156,-0.929687 -5.64063,-0.234375 -0.40625,0.15625 -0.65234,0.07031 -0.73437,-0.265625 -0.0859,-0.332031 0.11328,-0.546875 0.59375,-0.640625 z m -3.78125,21.187501 c -0.15625,0.2734375 -0.10938,0.4765625 0.14062,0.609375 1.11329,0.5234375 2.22657,1.0390625 3.34375,1.546875 1.125,0.5000001 2.25391,0.9843751 3.39063,1.4531251 0.78125,0.34375 1.56641,-0.1015625 2.35937,-1.34375 0.96875,-1.5507814 -0.32421,-3.5937502 -3.875,-6.1250001 -0.55468,-0.332031 -1.23046,-0.175781 -2.03125,0.46875 z m 3.26562,-4.90625 c 0.1875,0.148437 0.35938,0.140625 0.51563,-0.01563 l 4.39062,-4.296875 c 0.13282,-0.15625 0.17579,-0.300782 0.125,-0.4375 -0.0547,-0.132813 -0.17187,-0.207032 -0.35937,-0.21875 -0.90625,-0.09375 -1.90234,-0.441407 -2.98438,-1.046875 -1.74218,-0.988282 -2.88281,-1.656251 -3.42187,-2.000001 -0.53125,-0.34375 -1.21484,-0.03125 -2.04688,0.9375 -1.05468,1.242188 -1.05859,2.429688 -0.0156,3.562501 1.05078,1.136718 2.31641,2.308593 3.79687,3.515625 z m 14.63672,-6.562501 c -0.3125,0.179688 -0.51562,0.164063 -0.60937,-0.04687 -0.0859,-0.21875 -0.008,-0.4375 0.23437,-0.65625 0.75782,-0.6875 1.51953,-1.378906 2.28125,-2.078125 0.75782,-0.707031 1.49219,-1.445312 2.20313,-2.21875 0.30078,-0.375 0.5664,-0.539062 0.79687,-0.5 0.23828,0.04297 0.40625,0.195313 0.5,0.453125 0.0625,0.386719 0.21094,0.589844 0.45313,0.609375 0.25,0.02344 0.54687,0.140625 0.89062,0.359375 2.59375,2 3.34766,3.835938 2.26563,5.500001 -1.07422,1.667968 -2.70313,3.230468 -4.89063,4.6875 -0.13672,0.105468 -0.19922,0.230468 -0.1875,0.375 0.0195,0.136719 0.11719,0.242187 0.29688,0.3125 0.86328,0.28125 1.64062,0.621094 2.32812,1.015625 0.15625,0.0625 0.28907,0.04687 0.40625,-0.04687 1.28125,-0.894531 2.60938,-1.671875 3.98438,-2.328125 0.40625,-0.175782 0.66016,-0.15625 0.76562,0.0625 0.11329,0.21875 0.0312,0.40625 -0.25,0.5625 -1.48046,0.710937 -2.65234,1.371094 -3.51562,1.984375 -0.3125,0.179687 -0.32031,0.386719 -0.0156,0.625 1.1875,0.8984374 2.11329,1.9648437 2.78125,3.203125 0.67579,1.2421875 1.03516,3.1562501 1.07813,5.7500002 0.0508,2.71875013 -0.79297,5.1914065 -2.53125,7.4218753 -1.74219,2.2265626 -3.50781,3.3437502 -5.29688,3.3437502 -1.38672,0 -2.69531,-0.6796876 -3.92187,-2.0312501 -1.21875,-1.3554688 -1.82813,-3.0546876 -1.82813,-5.0937502 0,-3.7812502 1.51563,-7.1406253 4.54688,-10.0781255 0.25,-0.28125 0.22265,-0.484375 -0.0781,-0.609375 -1.03125,-0.5703125 -2.24218,-0.9570313 -3.625,-1.1562499 -0.71093,-0.15625 -0.75781,-0.425781 -0.14062,-0.8125 1.72656,-1 3.25,-2.160157 4.5625,-3.484375 1.3125,-1.320313 1.79687,-2.554688 1.45312,-3.703125 -0.34375,-1.144532 -0.96093,-1.832032 -1.84375,-2.062501 -0.875,-0.238281 -1.90625,-0.02344 -3.09375,0.640625 z m 3.96875,27.5312516 c 1.11328,0 2.02344,-0.6328125 2.73438,-1.8906251 0.70703,-1.25 0.92578,-3.4296876 0.65625,-6.53125022 -0.3125,-3.39453138 -1.39063,-5.89843778 -3.23438,-7.51562528 -0.1875,-0.1875 -0.36718,-0.1796875 -0.53125,0.015625 -2.21093,2.5546876 -3.32031,5.777344 -3.32812,9.6718754 0,1.65625 0.27344,3.1093751 0.82812,4.3593751 0.55078,1.2578126 1.50782,1.8906251 2.875,1.8906251 z m 13.1211,-35.9531266 c -0.69922,0.730469 -1.01172,1.4375 -0.9375,2.125 0.082,0.679688 0.65625,1.171875 1.71875,1.484375 1.34375,0.417969 2.23437,0.953125 2.67187,1.609375 0.44532,0.648438 0.71875,1.402344 0.8125,2.265625 0.008,0.15625 0.0703,0.261719 0.1875,0.3125 0.125,0.04297 0.25,0.04297 0.375,0 2,-1.164062 4.05078,-2.5625 6.15625,-4.1875 0.125,-0.09375 0.25,-0.109375 0.375,-0.04687 0.125,0.0625 0.20703,0.164063 0.25,0.296875 0.15625,0.84375 0.47266,1.570313 0.95313,2.171875 0.47656,0.59375 0.97656,1.183594 1.5,1.765625 1.92578,2.187501 2.78125,4.632813 2.5625,7.328126 -0.21875,3.3242186 -1.375,5.8671875 -3.46875,7.6250001 -2.3125,1.9492188 -4.08985,3.7812501 -5.32813,5.50000021 -0.15625,0.19531251 -0.33984,0.22656251 -0.54687,0.09375 -0.39844,-0.24218751 -0.79297,-0.46875002 -1.1875,-0.68750003 -0.38672,-0.21875001 -0.77735,-0.44531252 -1.17188,-0.68750003 -0.125,-0.0625 -0.24609,-0.0625 -0.35937,0 -0.11719,0.0546875 -0.17188,0.15625001 -0.17188,0.31250002 -0.19922,1.69531253 -0.44531,3.36328143 -0.73437,5.00000023 -0.28125,1.6328125 -0.58985,3.2734376 -0.92188,4.9218752 -0.0625,0.21875 -0.19922,0.3203125 -0.40625,0.3125 -0.19922,0 -0.32422,-0.1054688 -0.375,-0.3125 -0.33593,-1.8984376 -0.64843,-3.9296877 -0.9375,-6.0937503 -0.29297,-2.1679688 -0.51562,-4.2421877 -0.67187,-6.2343752 -0.0312,-0.1757813 -0.11719,-0.2851563 -0.25,-0.328125 -1.59375,-0.5820313 -2.71875,-0.5156251 -3.375,0.203125 -0.14844,0.1484375 -0.29297,0.1953125 -0.4375,0.140625 -0.14844,-0.0625 -0.21875,-0.203125 -0.21875,-0.4218751 0.008,-2.5625001 1.23437,-3.9218751 3.67187,-4.0781251 0.23828,0 0.35938,-0.125 0.35938,-0.375 v -0.7343751 c 0,-2.3437499 -0.0391,-4.0234379 -0.10938,-5.0468749 -0.0742,-1.019532 -0.13281,-2.265625 -0.17187,-3.734375 -0.0312,-0.707032 -0.21485,-1.25 -0.54688,-1.625001 -0.33593,-0.375 -0.66797,-0.703125 -1,-0.984375 -1.42968,-1.1875 -2.02343,-2.488281 -1.78125,-3.90625 0.25,-1.425781 1.17969,-2.878906 2.79688,-4.359375 0.28906,-0.289062 0.53515,-0.351562 0.73437,-0.1875 0.20703,0.15625 0.20313,0.34375 -0.0156,0.5625 z m 4.67187,21.375001 c 0,0.1875 0.0664,0.3085938 0.20313,0.359375 0.80078,0.4062501 1.58203,0.8398438 2.34375,1.2968751 0.76953,0.4609375 1.54687,0.90625 2.32812,1.34375 0.23828,0.1171876 0.42188,0.070312 0.54688,-0.140625 0.46875,-0.7382812 0.90625,-1.6484375 1.3125,-2.7343751 0.41406,-1.0820313 0.64062,-2.4375001 0.67187,-4.0625 0.0312,-1.675781 -0.29687,-3.179688 -0.98437,-4.515625 -0.6875,-1.332032 -1.4336,-2.601563 -2.23438,-3.8125 -0.83593,-1.164063 -2.27343,-1.250001 -4.3125,-0.250001 -0.15625,0.07422 -0.23437,0.187501 -0.23437,0.343751 0.008,0.1875 0.0156,0.476562 0.0156,0.859375 l 0.3125,9.3281249 c 0.0195,0.4609376 0.0312,1.1210938 0.0312,1.9843751 z m 16.88282,1.0156251 -0.15625,-12.9218751 c 0,-0.300782 -0.0547,-0.546875 -0.15625,-0.734376 -0.375,-0.613281 -0.69532,-0.765625 -0.95313,-0.453125 l -0.95312,0.968751 c -0.25,0.28125 -0.49219,0.3125 -0.71875,0.09375 -0.23047,-0.21875 -0.19532,-0.523438 0.10937,-0.921876 0.6875,-0.863281 1.30469,-1.726562 1.85938,-2.59375 0.55078,-0.863281 1.11718,-1.71875 1.70312,-2.5625 0.25,-0.300781 0.53906,-0.296875 0.875,0.01563 0.65625,0.804688 1.29688,1.511719 1.92188,2.125 0.63281,0.605469 1.53515,1.242188 2.70312,1.90625 0.32031,0.136719 0.46094,0.292969 0.42188,0.46875 -0.0312,0.167969 -0.13672,0.257813 -0.3125,0.265625 -0.40625,0.15625 -0.76563,0.429688 -1.07813,0.8125 -0.3125,0.386719 -0.46875,1.027344 -0.46875,1.921876 v 9.984375 c 0,1.6054688 0.29688,2.5898439 0.89063,2.9531251 0.6875,0.40625 1.2539,0.234375 1.70312,-0.515625 0.15625,-0.3007813 0.34766,-0.3671875 0.57813,-0.203125 0.22656,0.1679687 0.22265,0.4375 -0.0156,0.8125 -0.46875,0.7421876 -0.91406,1.4843751 -1.32812,2.2343751 -0.40625,0.7421875 -0.82422,1.48046883 -1.25,2.21875011 -0.29297,0.43750002 -0.66407,0.53125002 -1.10938,0.28125001 -1.40625,-0.67578128 -2.46875,-1.50000006 -3.1875,-2.46875012 -0.71875,-0.9765625 -1.07812,-2.2070313 -1.07812,-3.6875001 z m 3.42187,-28.0000011 c 1.75,0 2.54688,0.84375 2.39063,2.53125 -0.10547,0.84375 -0.64063,1.699219 -1.60938,2.5625 -0.96094,0.855469 -1.72656,1.273438 -2.29687,1.25 -0.5625,0 -0.9961,-0.445312 -1.29688,-1.34375 -0.29297,-0.894531 -0.40625,-1.71875 -0.34375,-2.46875 0.0391,-0.726563 0.39063,-1.332031 1.04688,-1.8125 0.65625,-0.476563 1.35937,-0.71875 2.10937,-0.71875 z m 7.10938,2.546875 c -0.21094,-0.21875 -0.21485,-0.425781 -0.0156,-0.625 0.19531,-0.207031 0.44141,-0.171875 0.73438,0.109375 0.36328,0.4375 0.73828,0.914063 1.125,1.421875 0.38281,0.5 0.71093,1.015625 0.98437,1.546875 0.0703,0.15625 0.17969,0.234375 0.32813,0.234375 0.15625,0 0.26953,-0.0625 0.34375,-0.1875 0.9375,-1.570312 2.22656,-2.835938 3.875,-3.796875 1.65625,-0.96875 3.4414,-1.421875 5.35937,-1.359375 0.36328,0.01172 0.55078,0.164062 0.5625,0.453125 0.0195,0.292969 -0.16797,0.4375 -0.5625,0.4375 -1.5625,0 -2.8125,0.449219 -3.75,1.34375 -0.92969,0.898438 -1.39062,2.53125 -1.39062,4.90625 l -0.0312,20.421876 c 0,0.5117188 0.11718,0.8359376 0.35937,0.9687501 l 1.6875,0.96875 c 0.39453,0.1484375 0.94141,-0.2265625 1.64063,-1.125 0.16406,-0.2382813 0.375,-0.2890625 0.625,-0.15625 0.25781,0.1367187 0.2539,0.34375 -0.0156,0.625 -1.65625,1.8437501 -2.92187,3.6523439 -3.79687,5.42187522 -0.1875,0.33203126 -0.47657,0.33203126 -0.85938,0 -0.76172,-0.98828129 -1.55469,-1.76953132 -2.375,-2.34375012 -0.8125,-0.5703125 -1.96094,-1.0078125 -3.4375,-1.3125 -0.26172,-0.03125 -0.39844,-0.1445313 -0.40625,-0.34375 0,-0.1953126 0.0859,-0.3320313 0.26563,-0.4062501 0.38281,-0.1445312 0.73828,-0.4101562 1.0625,-0.796875 0.32031,-0.3828125 0.48437,-1.0234375 0.48437,-1.9218751 l -0.0156,-15.843751 c 0,-2.269531 -0.2461,-4.054687 -0.73438,-5.359375 -0.49219,-1.300781 -1.17187,-2.394531 -2.04687,-3.28125 z m 19.96875,31.65625132 c -0.0312,-0.37500001 -0.23438,-0.65625003 -0.60938,-0.84375003 -0.36718,-0.18750001 -0.67187,-0.37500002 -0.92187,-0.56250003 -1.80469,-1.22656256 -3.07813,-2.72656266 -3.82813,-4.50000016 -0.75,-1.7695313 -1.17187,-3.6445314 -1.26562,-5.6250001 -0.1875,-4.476563 1.02343,-7.890625 3.64062,-10.234376 0.92578,-0.832031 1.99219,-1.507812 3.20313,-2.03125 1.20703,-0.53125 2.44531,-0.960937 3.71875,-1.296875 0.39453,-0.08203 0.6875,0.117188 0.875,0.59375 l 3.40625,7.968751 c 0.15625,0.429687 0.0976,0.695312 -0.17188,0.796875 h -0.0469 l -9.67188,3.75 c -0.1875,0.09375 -0.26562,0.246094 -0.23437,0.453125 0.76953,3.4921875 2.05469,5.7304688 3.85937,6.7187501 1.8125,0.9804688 3.61328,1.1210938 5.40625,0.421875 0.32032,-0.1328125 0.52344,-0.109375 0.60938,0.078125 0.082,0.1875 0.0234,0.3281251 -0.17188,0.4218751 -1.28125,0.6484375 -2.5,1.3085938 -3.65625,1.984375 -1.15625,0.67968757 -2.1875,1.3828126 -3.09375,2.12500013 -0.14843,0.09375 -0.35937,0.12500001 -0.64062,0.09375 -0.27344,-0.03125 -0.40625,-0.13671875 -0.40625,-0.31250001 z m -2.1875,-13.32812532 c 0.008,0.125 0.0625,0.226562 0.15625,0.296875 0.10156,0.07422 0.22265,0.07813 0.35937,0.01563 l 5.03125,-1.890625 c 0.22657,-0.09375 0.29688,-0.257813 0.20313,-0.5 l -2.875,-7.046876 c -0.13672,-0.34375 -0.41797,-0.390625 -0.84375,-0.140625 -0.91797,0.53125 -1.54297,1.75 -1.875,3.656251 -0.32422,1.90625 -0.375,3.777343 -0.15625,5.609375 z m 0,0"
             style="fill:#000000;fill-opacity:1;fill-rule:nonzero;stroke:none"
             aria-label="Trening szpile"
             transform="translate(634.22617,249.46278)" />
        </g>
      </g>
      <g
         id="g17">
        <g
           id="g18">
          <path
             id="path18"
             d="m 7.0316471,-11.189344 c 1.0390625,0 1.9882813,0.246093 2.8437501,0.734375 0.8632808,0.4804685 1.5507808,1.1484372 2.0624998,1.9999998 0.507813,0.8554688 0.765625,1.8281251 0.765625,2.9218751 0,1.0859375 -0.257812,2.0546876 -0.765625,2.9062501 -0.511719,0.8554688 -1.199219,1.5273438 -2.0624998,2.0156251 -0.8554688,0.49218752 -1.8046876,0.73437503 -2.8437501,0.73437503 -0.7109376,0 -1.3984376,-0.10546875 -2.0625001,-0.31250001 C 4.3011782,-0.40809389 3.7230532,-0.7049689 3.2347719,-1.0799689 v 1.07812503 H 1.5472718 V -15.314345 h 1.6875001 v 5.281251 c 0.5,-0.351563 1.0664063,-0.632813 1.7031251,-0.84375 0.6445313,-0.207032 1.34375,-0.3125 2.0937501,-0.3125 z m -0.25,9.8125001 c 0.8007812,0 1.5195313,-0.1796875 2.15625,-0.5468751 0.6328126,-0.375 1.1406249,-0.8671875 1.5156249,-1.484375 0.375,-0.625 0.5625,-1.3320313 0.5625,-2.1250001 0,-0.78125 -0.1875,-1.4843751 -0.5625,-2.1093751 -0.375,-0.625 -0.8828123,-1.1171875 -1.5156249,-1.4843751 -0.6367187,-0.375 -1.3554688,-0.5625 -2.15625,-0.5625 -0.7421876,0 -1.4140626,0.1171875 -2.0156251,0.34375 -0.6054688,0.2304688 -1.1171876,0.5429688 -1.5312501,0.9375001 v 5.7031252 c 0.4257813,0.4179688 0.9414063,0.7460938 1.5468751,0.9843751 0.6132812,0.2304687 1.28125,0.34375 2.0000001,0.34375 z M 24.961335,-10.986219 20.35196,0.59190615 c -0.3125,0.76953125 -0.773437,1.39062505 -1.375,1.85937505 -0.59375,0.46875 -1.265625,0.8046876 -2.015625,1.0156251 -0.742188,0.2070312 -1.484375,0.3125 -2.234375,0.3125 -0.136719,0 -0.273438,0 -0.40625,0 -0.136719,0 -0.265625,-0.00781 -0.390625,-0.015625 l 0.1875,-1.2812501 h 0.265625 c 1,0 1.898437,-0.1875 2.703125,-0.5625 0.8125,-0.375 1.382813,-1.01562503 1.71875,-1.92187507 h -0.4375 L 13.648835,-10.986219 h 1.796875 l 3.875,9 h 0.359375 l 3.53125,-9 z m 19.01172,-3.34375 v 14.32812513 h -1.75 V -10.361219 l -5.375,8.453125 -5.390626,-8.453125 V -0.00184387 H 29.723054 V -14.329969 h 0.90625 l 6.218751,9.5156249 6.21875,-9.5156249 z m 4.167969,1.515625 c -0.304688,0 -0.558594,-0.09766 -0.765625,-0.296875 -0.210938,-0.207032 -0.3125,-0.460938 -0.3125,-0.765625 0,-0.300782 0.101562,-0.546875 0.3125,-0.734375 0.207031,-0.195313 0.460937,-0.296875 0.765625,-0.296875 0.28125,0 0.519531,0.101562 0.71875,0.296875 0.207031,0.1875 0.3125,0.433593 0.3125,0.734375 0,0.304687 -0.105469,0.558593 -0.3125,0.765625 -0.199219,0.199218 -0.4375,0.296875 -0.71875,0.296875 z m -0.859375,1.828125 h 1.6875 v 10.98437513 h -1.6875 z m 13.1875,8.0625 1.09375,1.015625 c -0.5,0.6250001 -1.105468,1.12109384 -1.8125,1.48437511 -0.710937,0.36718752 -1.46875,0.54687502 -2.28125,0.54687502 -0.835937,0 -1.617187,-0.14453125 -2.34375,-0.43750002 -0.71875,-0.28906251 -1.355469,-0.69531251 -1.90625,-1.21875001 -0.542969,-0.5195313 -0.96875,-1.1250001 -1.28125,-1.8125001 -0.3125,-0.6875 -0.46875,-1.4140626 -0.46875,-2.1875001 0,-0.78125 0.15625,-1.5078126 0.46875,-2.1875001 0.3125,-0.6875 0.738281,-1.2890625 1.28125,-1.8125001 0.550781,-0.5195317 1.1875,-0.9257817 1.90625,-1.2187497 0.726563,-0.289063 1.507813,-0.4375 2.34375,-0.4375 0.832031,0 1.601563,0.183593 2.3125,0.546875 0.71875,0.355468 1.320313,0.8359372 1.8125,1.4374997 l -1.125,1.0156251 c -0.355468,-0.4570313 -0.792968,-0.8203125 -1.3125,-1.0937501 -0.523437,-0.2695312 -1.085937,-0.40625 -1.6875,-0.40625 -0.804687,0 -1.53125,0.1875 -2.1875,0.5625 -0.65625,0.3671876 -1.179687,0.8671876 -1.5625,1.5000001 -0.386719,0.625 -0.578125,1.3242188 -0.578125,2.0937501 0,0.7617188 0.191406,1.4609376 0.578125,2.0937501 0.382813,0.625 0.90625,1.125 1.5625,1.5 0.65625,0.3750001 1.382813,0.5625001 2.1875,0.5625001 0.59375,0 1.148438,-0.140625 1.671875,-0.421875 0.53125,-0.2890626 0.972657,-0.6640626 1.328125,-1.1250001 z m 8.855469,-8.265625 c 1.457032,0 2.609376,0.402343 3.453126,1.2031247 0.84375,0.8046875 1.265625,2.0546876 1.265625,3.7500002 v 6.23437523 h -1.6875 V -6.2362191 c 0,-1.1328126 -0.3125,-1.9921876 -0.937501,-2.5781251 -0.617187,-0.5820313 -1.402343,-0.8750001 -2.359375,-0.8750001 -0.71875,0 -1.359375,0.109375 -1.921875,0.328125 -0.5625,0.2109375 -1.058593,0.5078126 -1.484375,0.8906251 v 8.46875033 h -1.6875 V -15.314345 h 1.6875 v 5.312501 c 0.945313,-0.789063 2.171875,-1.1875 3.671875,-1.1875 z m 18.082032,0.203125 v 10.98437513 h -1.6875 V -1.0955939 c -0.5,0.375 -1.074218,0.67187501 -1.71875,0.89062502 -0.648437,0.21875001 -1.34375,0.32812501 -2.09375,0.32812501 -1.105469,0 -2.078125,-0.25781251 -2.921875,-0.78125003 -0.835937,-0.5195313 -1.492188,-1.2109376 -1.96875,-2.0781251 -0.46875,-0.875 -0.703125,-1.8125001 -0.703125,-2.8125001 0,-1 0.234375,-1.9257813 0.703125,-2.7812501 0.476562,-0.8632813 1.132813,-1.5546876 1.96875,-2.0781248 0.84375,-0.519532 1.816406,-0.78125 2.921875,-0.78125 0.71875,0 1.410156,0.109375 2.078125,0.328125 0.664063,0.210937 1.242188,0.507812 1.734375,0.8906247 v -1.0156247 z m -1.6875,8.328125 v -5.7187502 c -0.4375,-0.4140625 -0.964843,-0.7382813 -1.578125,-0.9687501 -0.605469,-0.2265625 -1.261719,-0.34375 -1.96875,-0.34375 -0.8125,0 -1.542969,0.1953125 -2.1875,0.578125 -0.636719,0.3750001 -1.136719,0.8750001 -1.5,1.5000001 -0.367187,0.6171875 -0.546875,1.3046876 -0.546875,2.0625001 0,0.75 0.179688,1.4453126 0.546875,2.0781251 0.363281,0.6367188 0.867188,1.1484375 1.515625,1.53125 0.644531,0.3750001 1.367188,0.5625001 2.171875,0.5625001 0.726563,0 1.394531,-0.1132813 2,-0.34375 0.613282,-0.2382813 1.128907,-0.5507813 1.546875,-0.9375001 z m 4.792969,-12.656251 h 1.703125 v 15.31250113 h -1.703125 z m 5.730469,2.500001 c -0.304687,0 -0.558593,-0.09766 -0.765625,-0.296875 -0.210937,-0.207032 -0.3125,-0.460938 -0.3125,-0.765625 0,-0.300782 0.101563,-0.546875 0.3125,-0.734375 0.207032,-0.195313 0.460938,-0.296875 0.765625,-0.296875 0.28125,0 0.519532,0.101562 0.71875,0.296875 0.207032,0.1875 0.3125,0.433593 0.3125,0.734375 0,0.304687 -0.105468,0.558593 -0.3125,0.765625 -0.199218,0.199218 -0.4375,0.296875 -0.71875,0.296875 z m -0.859375,1.828125 h 1.6875 v 10.98437513 h -1.6875 z m 10.203127,-0.203125 c 1.45703,0 2.60937,0.402343 3.45312,1.2031247 0.84375,0.8046875 1.26563,2.0546876 1.26563,3.7500002 v 6.23437523 h -1.6875 V -6.2362191 c 0,-1.1328126 -0.30859,-1.9921876 -0.92188,-2.5781251 -0.60547,-0.5820313 -1.39843,-0.8750001 -2.375,-0.8750001 -0.71875,0 -1.35937,0.109375 -1.92187,0.328125 -0.5625,0.2109375 -1.0586,0.5117188 -1.48438,0.9062501 v 8.45312533 h -1.6875 V -10.986219 h 1.6875 v 1.0468747 c 0.94532,-0.8320317 2.17188,-1.2499997 3.67188,-1.2499997 z m 18.09766,0.203125 v 10.98437513 h -1.6875 V -1.0955939 c -0.5,0.375 -1.07422,0.67187501 -1.71875,0.89062502 -0.64844,0.21875001 -1.34375,0.32812501 -2.09375,0.32812501 -1.10547,0 -2.07813,-0.25781251 -2.92188,-0.78125003 -0.83594,-0.5195313 -1.49219,-1.2109376 -1.96875,-2.0781251 -0.46875,-0.875 -0.70312,-1.8125001 -0.70312,-2.8125001 0,-1 0.23437,-1.9257813 0.70312,-2.7812501 0.47656,-0.8632813 1.13281,-1.5546876 1.96875,-2.0781248 0.84375,-0.519532 1.81641,-0.78125 2.92188,-0.78125 0.71875,0 1.41015,0.109375 2.07812,0.328125 0.66406,0.210937 1.24219,0.507812 1.73438,0.8906247 v -1.0156247 z m -1.6875,8.328125 v -5.7187502 c -0.4375,-0.4140625 -0.96485,-0.7382813 -1.57813,-0.9687501 -0.60547,-0.2265625 -1.26172,-0.34375 -1.96875,-0.34375 -0.8125,0 -1.54297,0.1953125 -2.1875,0.578125 -0.63672,0.3750001 -1.13672,0.8750001 -1.5,1.5000001 -0.36719,0.6171875 -0.54687,1.3046876 -0.54687,2.0625001 0,0.75 0.17968,1.4453126 0.54687,2.0781251 0.36328,0.6367188 0.86719,1.1484375 1.51563,1.53125 0.64453,0.3750001 1.36718,0.5625001 2.17187,0.5625001 0.72656,0 1.39453,-0.1132813 2,-0.34375 0.61328,-0.2382813 1.12891,-0.5507813 1.54688,-0.9375001 z m 12.57421,-5.2812502 c 0.95704,0.2109375 1.81641,0.46875 2.57813,0.78125 0.76953,0.3125 1.37891,0.7265626 1.82813,1.2343751 0.44531,0.5117188 0.67187,1.1835938 0.67187,2.0156251 0,0.8554688 -0.21875,1.5898438 -0.65625,2.2031251 -0.4375,0.6054687 -1.05859,1.0703125 -1.85938,1.39062501 -0.79296,0.31250002 -1.71875,0.46875002 -2.78125,0.46875002 -0.58593,0 -1.10546,-0.015625 -1.5625,-0.046875 -0.44921,-0.03125 -0.88281,-0.08984375 -1.29687,-0.17187501 -0.41797,-0.09375 -0.85156,-0.2265625 -1.29688,-0.40625001 -0.4375,-0.17578126 -0.94531,-0.40625002 -1.51562,-0.68750001 l 0.65625,-1.3437501 c 0.67578,0.3242188 1.26953,0.5742188 1.78125,0.7500001 0.50781,0.1679687 1.01953,0.2773437 1.53125,0.328125 0.51953,0.054687 1.10937,0.078125 1.76562,0.078125 1.05079,0 1.89063,-0.2109375 2.51563,-0.6406251 0.63281,-0.4257812 0.95313,-1.0234375 0.95313,-1.796875 0,-0.5000001 -0.16407,-0.9101563 -0.48438,-1.2343751 -0.3125,-0.3203125 -0.75,-0.5859375 -1.3125,-0.796875 -0.5625,-0.21875 -1.21875,-0.4140625 -1.96875,-0.59375 -0.73047,-0.1640625 -1.41406,-0.3476563 -2.04688,-0.5468751 -0.63671,-0.2070312 -1.19921,-0.4570312 -1.6875,-0.75 -0.49218,-0.2890625 -0.875,-0.6601563 -1.15625,-1.109375 -0.27343,-0.4453126 -0.40625,-1.0039063 -0.40625,-1.6718748 0,-0.769532 0.20313,-1.453125 0.60938,-2.046875 0.40625,-0.59375 0.98437,-1.054688 1.73437,-1.390625 0.75,-0.34375 1.64844,-0.515625 2.70313,-0.515625 0.94531,0 1.88281,0.109375 2.8125,0.328125 0.9375,0.210937 1.73828,0.46875 2.40625,0.78125 l -0.73437,1.390625 c -0.40625,-0.207032 -0.8711,-0.382813 -1.39063,-0.53125 -0.52344,-0.15625 -1.05469,-0.269532 -1.59375,-0.34375 -0.54297,-0.08203 -1.05469,-0.125 -1.53125,-0.125 -1.03125,0 -1.83594,0.21875 -2.40625,0.65625 -0.57422,0.4375 -0.85938,1.007812 -0.85938,1.703125 0,0.5 0.16407,0.9140622 0.5,1.2343747 0.34375,0.3125001 0.81641,0.5781251 1.42188,0.7968751 0.60156,0.2109375 1.29687,0.4140625 2.07812,0.609375 z m 9.38282,6.5625003 h 7.64062 v 1.37500003 h -10.17187 v -0.87500004 l 7.67187,-8.71875039 h -7.32812 v -1.3906247 h 9.90625 v 0.828125 z m 20.42969,1.37500003 h -1.90625 l -3.48438,-5.48437523 -3.375,3.1875001 v 2.29687513 h -1.6875 V -15.314345 h 1.6875 v 10.7968759 l 6.67188,-6.4687499 h 2.07812 l -4.25,4.2187498 z m 6.62109,-11.18750013 c 0.83203,0 1.60938,0.148437 2.32813,0.4375 0.71875,0.292968 1.34765,0.699218 1.89062,1.2187497 0.55078,0.5234376 0.98438,1.1250001 1.29688,1.8125001 0.3125,0.6796875 0.46875,1.4062501 0.46875,2.1875001 0,0.7734375 -0.15625,1.5000001 -0.46875,2.1875001 -0.3125,0.6875 -0.7461,1.2929688 -1.29688,1.8125001 -0.54297,0.5234375 -1.17187,0.9296875 -1.89062,1.21875001 -0.71875,0.29296877 -1.4961,0.43750002 -2.32813,0.43750002 -0.82422,0 -1.60156,-0.14453125 -2.32812,-0.43750002 -0.71875,-0.28906251 -1.35547,-0.69531251 -1.90626,-1.21875001 -0.54296,-0.5195313 -0.96875,-1.1250001 -1.28125,-1.8125001 -0.3125,-0.6875 -0.46875,-1.4140626 -0.46875,-2.1875001 0,-0.78125 0.15625,-1.5078126 0.46875,-2.1875001 0.3125,-0.6875 0.73829,-1.2890625 1.28125,-1.8125001 0.55079,-0.5195317 1.18751,-0.9257817 1.90626,-1.2187497 0.72656,-0.289063 1.5039,-0.4375 2.32812,-0.4375 z m 0,9.8125001 c 0.80078,0 1.52344,-0.1875 2.17188,-0.5625001 0.65625,-0.375 1.17578,-0.875 1.5625,-1.5 0.38281,-0.6328125 0.57812,-1.3320313 0.57812,-2.0937501 0,-0.7695313 -0.19531,-1.4687501 -0.57812,-2.0937501 -0.38672,-0.6328125 -0.90625,-1.1328125 -1.5625,-1.5000001 -0.64844,-0.375 -1.3711,-0.5625 -2.17188,-0.5625 -0.79297,0 -1.51562,0.1875 -2.17187,0.5625 -0.65625,0.3671876 -1.17969,0.8671876 -1.56251,1.5000001 -0.38671,0.625 -0.57812,1.3242188 -0.57812,2.0937501 0,0.7617188 0.19141,1.4609376 0.57812,2.0937501 0.38282,0.625 0.90626,1.125 1.56251,1.5 0.65625,0.3750001 1.3789,0.5625001 2.17187,0.5625001 z m 8.45313,-13.9375011 h 1.70312 v 15.31250113 h -1.70312 z m 15.33984,4.328126 v 10.98437513 h -1.6875 V -1.0955939 c -0.5,0.375 -1.07422,0.67187501 -1.71875,0.89062502 -0.64844,0.21875001 -1.34375,0.32812501 -2.09375,0.32812501 -1.10547,0 -2.07813,-0.25781251 -2.92188,-0.78125003 -0.83593,-0.5195313 -1.49218,-1.2109376 -1.96875,-2.0781251 -0.46875,-0.875 -0.70312,-1.8125001 -0.70312,-2.8125001 0,-1 0.23437,-1.9257813 0.70312,-2.7812501 0.47657,-0.8632813 1.13282,-1.5546876 1.96875,-2.0781248 0.84375,-0.519532 1.81641,-0.78125 2.92188,-0.78125 0.71875,0 1.41016,0.109375 2.07812,0.328125 0.66407,0.210937 1.24219,0.507812 1.73438,0.8906247 v -1.0156247 z m -1.6875,8.328125 v -5.7187502 c -0.4375,-0.4140625 -0.96484,-0.7382813 -1.57813,-0.9687501 -0.60546,-0.2265625 -1.26171,-0.34375 -1.96875,-0.34375 -0.8125,0 -1.54296,0.1953125 -2.1875,0.578125 -0.63671,0.3750001 -1.13671,0.8750001 -1.5,1.5000001 -0.36718,0.6171875 -0.54687,1.3046876 -0.54687,2.0625001 0,0.75 0.17969,1.4453126 0.54687,2.0781251 0.36329,0.6367188 0.86719,1.1484375 1.51563,1.53125 0.64453,0.3750001 1.36719,0.5625001 2.17187,0.5625001 0.72657,0 1.39454,-0.1132813 2,-0.34375 0.61329,-0.2382813 1.12891,-0.5507813 1.54688,-0.9375001 z m 15.23047,2.65625013 H 206.434 l -3.48438,-5.48437523 -3.375,3.1875001 v 2.29687513 h -1.6875 V -15.314345 h 1.6875 v 10.7968759 l 6.67188,-6.4687499 h 2.07812 l -4.25,4.2187498 z m 0,0"
             style="fill:#000000;fill-opacity:1;fill-rule:nonzero;stroke:none"
             aria-label="by Michalina Szkolak"
             transform="translate(665.63242,293.46278)" />
        </g>
      </g>
      <g
         id="g19"
         clip-path="url(#clipPath15)">
        <g
           id="g20">
          <path
             id="path20"
             d="M 3.5160219,-0.00183571 H 1.7503968 V -14.329961 H 3.5160219 Z M 19.683991,-6.861211 v 4.8906252 c -0.78125,0.6367188 -1.710937,1.14843756 -2.78125,1.53125008 -1.074219,0.37500001 -2.210937,0.56250002 -3.40625,0.56250002 -1.054688,0 -2.039063,-0.18750001 -2.953125,-0.56250002 C 9.6371159,-0.82214824 8.8324283,-1.3455858 8.1371158,-2.0018358 7.437897,-2.6658983 6.891022,-3.4393358 6.4964907,-4.3143359 6.109772,-5.1971484 5.9183657,-6.1463672 5.9183657,-7.158086 c 0,-1 0.1914063,-1.9375001 0.578125,-2.8125001 0.3945313,-0.8828129 0.9414063,-1.6562499 1.6406251,-2.3124999 0.6953125,-0.664063 1.5000001,-1.1875 2.4062502,-1.5625 0.914062,-0.382813 1.898437,-0.578125 2.953125,-0.578125 1.175781,0 2.242188,0.183593 3.203125,0.546875 0.957031,0.367187 1.773438,0.867187 2.453125,1.5 l -1.09375,1.203125 c -0.554687,-0.507813 -1.21875,-0.910156 -2,-1.203125 -0.78125,-0.289063 -1.636719,-0.4375 -2.5625,-0.4375 -0.804687,0 -1.558594,0.148437 -2.265625,0.4375 -0.699219,0.292969 -1.3203126,0.699219 -1.8593751,1.21875 -0.5312501,0.523437 -0.9492188,1.125 -1.2500001,1.8124999 -0.2929687,0.6796875 -0.4375,1.4062501 -0.4375,2.1875001 0,0.8046875 0.1445313,1.5546876 0.4375,2.2500001 0.3007813,0.6875 0.71875,1.296875 1.2500001,1.8281251 0.5390625,0.5234375 1.1601561,0.9296875 1.8593751,1.21875 0.707031,0.2929688 1.460938,0.4375 2.265625,0.4375 0.875,0 1.6875,-0.125 2.4375,-0.375 0.75,-0.25 1.414063,-0.59375 2,-1.03125 V -5.4237109 H 13.137116 V -6.861211 Z m 3.425782,-2.0000001 c -0.292969,0 -0.542969,-0.097656 -0.75,-0.296875 -0.199219,-0.1953125 -0.296875,-0.4414063 -0.296875,-0.734375 0,-0.3007809 0.09766,-0.5507809 0.296875,-0.7499999 0.207031,-0.207031 0.457031,-0.3125 0.75,-0.3125 0.300781,0 0.550781,0.105469 0.75,0.3125 0.207031,0.199219 0.3125,0.449219 0.3125,0.7499999 0,0.2929687 -0.105469,0.5390625 -0.3125,0.734375 -0.199219,0.1992188 -0.449219,0.296875 -0.75,0.296875 z m 0,6.8750003 c 0.300781,0 0.550781,0.1054688 0.75,0.3125 0.207031,0.1992188 0.3125,0.4453125 0.3125,0.73437506 0,0.30468751 -0.105469,0.55859377 -0.3125,0.76562503 -0.199219,0.19531251 -0.449219,0.29687501 -0.75,0.29687501 -0.292969,0 -0.542969,-0.1015625 -0.75,-0.29687501 -0.199219,-0.20703126 -0.296875,-0.46093752 -0.296875,-0.76562503 0,-0.28906256 0.09766,-0.53515626 0.296875,-0.73437506 0.207031,-0.2070312 0.457031,-0.3125 0.75,-0.3125 z m 0,0"
             style="fill:#000000;fill-opacity:1;fill-rule:nonzero;stroke:none"
             aria-label="IG: "
             transform="translate(664.60117,489.46277)" />
        </g>
        <g
           id="g21">
          <path
             id="path21"
             d="m 9.8753983,-14.704961 c 1.2265627,0 2.3789067,0.230468 3.4531247,0.6875 1.082032,0.460937 2.031251,1.09375 2.843751,1.90625 0.820312,0.8125 1.460937,1.757812 1.921875,2.8281249 0.46875,1.0742188 0.703125,2.2265626 0.703125,3.4531252 0,0.875 -0.199219,1.6835938 -0.59375,2.4218751 -0.398438,0.7304687 -0.921875,1.3085938 -1.578125,1.734375 -0.65625,0.4296875 -1.398438,0.6406251 -2.218751,0.6406251 -0.835937,0 -1.460937,-0.1914063 -1.875,-0.5781251 -0.40625,-0.3828125 -0.609375,-0.9140625 -0.609375,-1.59375 v -0.15625 c -0.3125,0.625 -0.804687,1.1328125 -1.46875,1.515625 -0.6679685,0.375 -1.3593747,0.5625 -2.0781248,0.5625 -0.7929687,0 -1.4804688,-0.1914062 -2.0625001,-0.578125 -0.5859375,-0.3828125 -1.0390625,-0.8945313 -1.359375,-1.53125 -0.3242188,-0.6328126 -0.484375,-1.3320314 -0.484375,-2.0937501 0,-0.6875001 0.1171875,-1.3515626 0.359375,-2.0000001 0.25,-0.6445313 0.5859375,-1.2109376 1.015625,-1.7031251 0.4375,-0.5 0.9375001,-0.8945309 1.5000001,-1.1874999 0.5625,-0.289063 1.1640625,-0.4375 1.8125001,-0.4375 0.7890625,0 1.4726567,0.214844 2.0468747,0.640625 0.570313,0.4179686 0.988282,0.9648437 1.25,1.6406249 l 0.28125,-1.8749999 1.421875,0.234375 c 0,0 -0.02734,0.152344 -0.07813,0.4531249 -0.04297,0.2929688 -0.101562,0.671875 -0.171875,1.140625 -0.0625,0.4687501 -0.136718,0.9687501 -0.21875,1.5000001 -0.08594,0.5234375 -0.164062,1.015625 -0.234375,1.4843751 -0.0625,0.46875 -0.121093,0.859375 -0.171875,1.171875 -0.04297,0.3046875 -0.0625,0.4648438 -0.0625,0.484375 0,0.5937501 0.117188,1.0742188 0.359375,1.4375001 0.238282,0.3554688 0.628907,0.53125 1.171876,0.53125 0.664062,0 1.234375,-0.1875 1.703125,-0.5625 0.476562,-0.3828125 0.84375,-0.8671875 1.09375,-1.4531251 0.257812,-0.59375 0.390625,-1.203125 0.390625,-1.828125 0,-1.1015626 -0.210938,-2.1406251 -0.625,-3.1093752 -0.40625,-0.96875 -0.980469,-1.8203129 -1.71875,-2.5624999 -0.742188,-0.738281 -1.601563,-1.3125 -2.578126,-1.71875 -0.96875,-0.414063 -2.015625,-0.625 -3.1406247,-0.625 -1.125,0 -2.1796876,0.210937 -3.1562501,0.625 -0.9687501,0.40625 -1.8242189,0.980469 -2.5625001,1.71875 -0.7421876,0.742187 -1.3203126,1.6015624 -1.7343751,2.5781249 -0.40625,0.9687501 -0.609375,2.0078126 -0.609375,3.1093752 0,1.1171875 0.203125,2.1640625 0.609375,3.1406251 0.4140625,0.96875 0.9921875,1.82421881 1.7343751,2.56250009 0.75,0.73828128 1.609375,1.31640631 2.5781251,1.73437511 0.9765625,0.4257812 2.0234376,0.640625 3.1406251,0.640625 1.0078127,0 1.9726567,-0.15625 2.8906247,-0.46875 0.914063,-0.3125 1.722657,-0.7773438 2.421876,-1.39062509 0.207031,0.20703126 0.34375,0.34375002 0.40625,0.40625002 0.0625,0.0703125 0.101562,0.1171875 0.125,0.140625 -0.78125,0.67578127 -1.671876,1.20703127 -2.671876,1.59375007 -0.992187,0.3945313 -2.046875,0.59375 -3.1718747,0.59375 -1.2304688,0 -2.3867189,-0.234375 -3.4687501,-0.703125 C 5.3207106,1.9903519 4.3675856,1.3497269 3.547273,0.52941432 2.7230542,-0.28308572 2.0824292,-1.2283983 1.625398,-2.3143358 1.1644604,-3.3963671 0.93789792,-4.5565234 0.93789792,-5.7987109 c 0,-1.2265626 0.22656248,-2.3789064 0.68750008,-3.4531252 0.4570312,-1.0820309 1.0976562,-2.0312499 1.921875,-2.8437499 0.8203126,-0.820313 1.7734376,-1.460938 2.8593752,-1.921875 1.0820312,-0.457032 2.2382813,-0.6875 3.4687501,-0.6875 z m 2.0624997,8.125 c 0,-0.53125 -0.117187,-1.0039063 -0.34375,-1.421875 -0.230468,-0.4257813 -0.542968,-0.7578126 -0.9375,-1.0000001 -0.386718,-0.2382812 -0.8281247,-0.359375 -1.3281247,-0.359375 -0.5742188,0 -1.1171876,0.1679688 -1.6250001,0.5 -0.5,0.3242188 -0.9140625,0.7656251 -1.234375,1.3281251 -0.3125001,0.5625 -0.4687501,1.1953125 -0.4687501,1.8906251 0,0.5429687 0.1132813,1.03125 0.3437501,1.46875 0.2265625,0.4375 0.5351562,0.7929688 0.921875,1.0625001 0.3945313,0.2617187 0.84375,0.390625 1.34375,0.390625 0.5820313,0 1.1250001,-0.171875 1.6249998,-0.515625 0.5,-0.3515626 0.90625,-0.8203126 1.21875,-1.4062501 0.320313,-0.59375 0.484375,-1.2382813 0.484375,-1.9375001 z m 20.195314,-6.265625 h -4.90625 V -0.00183571 H 25.445711 V -12.845586 h -4.890625 v -1.484375 h 11.578126 z m 12.046875,12.84375029 -3.25,-4.42187519 c -0.148437,0.011719 -0.304687,0.023437 -0.46875,0.03125 -0.15625,0 -0.320312,0 -0.484375,0 h -3.5 v 4.39062519 H 34.742587 V -14.329961 h 5.859375 c 1.3125,0 2.347656,0.230468 3.109375,0.6875 0.769531,0.460937 1.320313,1.058594 1.65625,1.796875 0.332032,0.730469 0.5,1.515625 0.5,2.3593749 0,1.2734376 -0.28125,2.2968751 -0.84375,3.0781251 -0.5625,0.7812501 -1.34375,1.3242188 -2.34375,1.6250001 l 3.609375,4.78125019 z M 36.476962,-5.8299609 h 3.4375 c 1.300781,0 2.316406,-0.2890626 3.046875,-0.8750001 0.726563,-0.59375 1.09375,-1.4882813 1.09375,-2.6875001 0,-0.59375 -0.121094,-1.1484379 -0.359375,-1.6718749 -0.230469,-0.53125 -0.617187,-0.957031 -1.15625,-1.28125 -0.53125,-0.332031 -1.25,-0.5 -2.15625,-0.5 h -3.90625 z m 22.519532,4.3437501 v 1.48437509 H 48.637119 V -14.329961 h 9.921875 v 1.484375 h -8.25 v 5.171875 h 7 v 1.453125 h -7 v 4.7343752 z M 73.953526,-14.329961 v 14.32812529 h -0.90625 L 63.453526,-11.048711 V -0.00183571 H 61.71915 V -14.329961 h 0.90625 l 9.609376,11.0625002 V -14.329961 Z M 79.19962,-0.00183571 H 77.433995 V -14.329961 H 79.19962 Z M 94.914464,-14.329961 v 14.32812529 h -0.90625 L 84.414464,-11.048711 V -0.00183571 H 82.680089 V -14.329961 h 0.90625 l 9.609375,11.0625002 V -14.329961 Z m 16.562506,7.46875 v 4.8906252 c -0.78126,0.6367188 -1.71094,1.14843756 -2.78126,1.53125008 -1.07421,0.37500001 -2.21093,0.56250002 -3.40625,0.56250002 -1.05468,0 -2.03906,-0.18750001 -2.95312,-0.56250002 -0.90625,-0.38281252 -1.71094,-0.90625008 -2.40625,-1.56250008 -0.699219,-0.6640625 -1.246094,-1.4375 -1.640626,-2.3125001 -0.386718,-0.8828125 -0.578125,-1.8320313 -0.578125,-2.8437501 0,-1 0.191407,-1.9375001 0.578125,-2.8125001 0.394532,-0.8828129 0.941407,-1.6562499 1.640626,-2.3124999 0.69531,-0.664063 1.5,-1.1875 2.40625,-1.5625 0.91406,-0.382813 1.89844,-0.578125 2.95312,-0.578125 1.17579,0 2.24219,0.183593 3.20313,0.546875 0.95703,0.367187 1.77344,0.867187 2.45313,1.5 l -1.09376,1.203125 c -0.55468,-0.507813 -1.21875,-0.910156 -2,-1.203125 -0.78125,-0.289063 -1.63671,-0.4375 -2.5625,-0.4375 -0.80468,0 -1.55859,0.148437 -2.26562,0.4375 -0.69922,0.292969 -1.32031,0.699219 -1.85938,1.21875 -0.53125,0.523437 -0.94921,1.125 -1.249995,1.8124999 -0.292969,0.6796875 -0.4375,1.4062501 -0.4375,2.1875001 0,0.8046875 0.144531,1.5546876 0.4375,2.2500001 0.300785,0.6875 0.718745,1.296875 1.249995,1.8281251 0.53907,0.5234375 1.16016,0.9296875 1.85938,1.21875 0.70703,0.2929688 1.46094,0.4375 2.26562,0.4375 0.875,0 1.6875,-0.125 2.4375,-0.375 0.75,-0.25 1.41407,-0.59375 2,-1.03125 v -2.5937501 h -4.79687 V -6.861211 Z m 8.14453,-1.078125 c 0.95703,0.2109375 1.8164,0.46875 2.57812,0.78125 0.76953,0.3125 1.37891,0.7265625 1.82813,1.234375 0.44531,0.5117188 0.67187,1.1835938 0.67187,2.0156251 0,0.8554688 -0.21875,1.5898438 -0.65625,2.2031251 -0.4375,0.6054688 -1.05859,1.07031257 -1.85937,1.39062508 -0.79297,0.31250001 -1.71875,0.46875002 -2.78125,0.46875002 -0.58594,0 -1.10547,-0.015625 -1.5625,-0.046875 -0.44922,-0.03125 -0.88282,-0.08984375 -1.29688,-0.17187501 -0.41797,-0.09375 -0.85156,-0.22656251 -1.29687,-0.40625002 -0.4375,-0.17578125 -0.94532,-0.40625001 -1.51563,-0.68750007 l 0.65625,-1.34375 c 0.67578,0.3242188 1.26953,0.5742188 1.78125,0.75 0.50781,0.1679688 1.01953,0.2773438 1.53125,0.328125 0.51953,0.054687 1.10938,0.078125 1.76563,0.078125 1.05078,0 1.89062,-0.2109375 2.51562,-0.640625 0.63281,-0.4257813 0.95313,-1.0234375 0.95313,-1.7968751 0,-0.5 -0.16407,-0.9101563 -0.48438,-1.234375 -0.3125,-0.3203125 -0.75,-0.5859375 -1.3125,-0.796875 -0.5625,-0.2187501 -1.21875,-0.4140626 -1.96875,-0.5937501 -0.73047,-0.1640625 -1.41406,-0.3476562 -2.04687,-0.546875 -0.63672,-0.2070313 -1.19922,-0.4570313 -1.6875,-0.75 -0.49219,-0.2890625 -0.875,-0.6601563 -1.15625,-1.1093751 -0.27344,-0.4453125 -0.40625,-1.0039063 -0.40625,-1.6718749 0,-0.769531 0.20312,-1.453125 0.60937,-2.046875 0.40625,-0.59375 0.98438,-1.054688 1.73438,-1.390625 0.75,-0.34375 1.64843,-0.515625 2.70312,-0.515625 0.94531,0 1.88281,0.109375 2.8125,0.328125 0.9375,0.210937 1.73828,0.46875 2.40625,0.78125 l -0.73437,1.390625 c -0.40625,-0.207031 -0.8711,-0.382813 -1.39063,-0.53125 -0.52344,-0.15625 -1.05469,-0.269531 -1.59375,-0.34375 -0.54297,-0.08203 -1.05469,-0.125 -1.53125,-0.125 -1.03125,0 -1.83594,0.21875 -2.40625,0.65625 -0.57422,0.4375 -0.85937,1.007812 -0.85937,1.703125 0,0.5 0.16406,0.9140624 0.5,1.2343749 0.34375,0.3125 0.8164,0.578125 1.42187,0.796875 0.60156,0.2109375 1.29688,0.4140626 2.07813,0.6093751 z m 18.35937,-5.609375 -9,12.0625002 h 9.10938 v 1.48437509 h -11.625 v -0.75000003 l 9,-12.09375026 h -8.51563 v -1.484375 h 11.03125 z m 2.75391,-0.78125 h 5.65625 c 1.30078,0 2.33203,0.230468 3.09375,0.6875 0.76953,0.460937 1.32031,1.058594 1.65625,1.796875 0.34375,0.730469 0.51562,1.515625 0.51562,2.3593749 0,1.2109375 -0.25,2.1875001 -0.75,2.9375001 -0.49218,0.7500001 -1.17187,1.2968751 -2.04687,1.6406251 -0.875,0.34375 -1.88281,0.515625 -3.01563,0.515625 h -3.375 v 4.39062519 h -1.73437 z m 1.73437,8.5000001 h 3.23438 c 1.28906,0 2.30078,-0.2890626 3.03125,-0.8750001 0.72656,-0.59375 1.09375,-1.4882813 1.09375,-2.6875001 0,-0.59375 -0.11719,-1.1484379 -0.34375,-1.6718749 -0.23047,-0.53125 -0.61719,-0.957031 -1.15625,-1.28125 -0.53125,-0.332031 -1.25781,-0.5 -2.17188,-0.5 h -3.6875 z m 13.45313,5.82812519 h -1.76563 V -14.329961 h 1.76563 z m 13.16406,-1.43750009 v 1.43750009 h -9.6875 V -14.329961 h 1.73438 v 12.8906252 z m 12.83985,-0.046875 v 1.48437509 H 171.56681 V -14.329961 h 9.92188 v 1.484375 h -8.25 v 5.171875 h 7 v 1.453125 h -7 v 4.7343752 z m 0,0"
             style="fill:#000000;fill-opacity:1;fill-rule:nonzero;stroke:none"
             aria-label="@TRENINGSZPILE"
             transform="translate(692.46054,489.46277)" />
        </g>
      </g>
    </g>
  </g>
</svg>
