<?xml version="1.0" encoding="UTF-8" standalone="no"?>
<svg
   version="1.1"
   id="Layer_1"
   x="0px"
   y="0px"
   width="720"
   viewBox="0 0 720 270"
   enable-background="new 0 0 720 1024"
   xml:space="preserve"
   sodipodi:docname="file.svg"
   height="270"
   inkscape:version="1.4.3 (0d15f75042, 2025-12-25)"
   xmlns:inkscape="http://www.inkscape.org/namespaces/inkscape"
   xmlns:sodipodi="http://sodipodi.sourceforge.net/DTD/sodipodi-0.dtd"
   xmlns="http://www.w3.org/2000/svg"
   xmlns:svg="http://www.w3.org/2000/svg"><defs
   id="defs39" /><sodipodi:namedview
   id="namedview39"
   pagecolor="#ffffff"
   bordercolor="#000000"
   borderopacity="0.25"
   inkscape:showpageshadow="2"
   inkscape:pageopacity="0.0"
   inkscape:pagecheckerboard="0"
   inkscape:deskcolor="#d1d1d1"
   showguides="false"
   inkscape:zoom="0.79589844"
   inkscape:cx="360.59877"
   inkscape:cy="512"
   inkscape:window-width="1920"
   inkscape:window-height="1024"
   inkscape:window-x="0"
   inkscape:window-y="0"
   inkscape:window-maximized="1"
   inkscape:current-layer="Layer_1" />






































<g
   id="g39"
   transform="translate(-11.307975,-371.90675)"><path
     fill="#000000"
     opacity="1"
     stroke="none"
     d="m 92.576958,504.39911 c -0.24144,-0.47855 -0.296875,-0.64807 -0.407318,-0.76611 -10.406022,-11.11966 -5.23626,-22.07084 0.597152,-32.80796 2.610314,-4.80459 5.939369,-9.22686 9.048618,-13.74951 2.15236,-3.13083 3.15887,-5.7355 -1.07598,-8.20904 -3.16911,-1.85114 -2.519146,-5.69813 -2.845593,-8.65061 -2.047424,-18.51807 4.598643,-33.94693 17.528463,-46.91315 2.88626,-2.89437 6.06848,-3.53329 10.42391,-2.31012 9.5599,2.68485 19.36734,4.5145 29.11012,6.51615 19.05397,3.91473 36.24219,11.87875 51.78349,23.5014 0.26628,0.19916 0.47521,0.52951 0.76865,0.62992 9.49385,3.24874 7.46368,10.99069 6.39122,17.7539 -1.94972,12.29559 -6.60802,23.69202 -13.42192,34.15103 -0.89997,1.38135 -1.80558,3.07517 -3.15184,3.7934 -5.09925,2.72055 -3.46285,6.0206 -1.09561,9.39322 4.79438,6.83075 9.38957,13.74429 11.93216,21.81485 1.94627,6.17776 1.2564,7.78921 -4.35817,10.75674 -6.16184,3.25672 -12.21103,6.72644 -18.30985,10.10254 -0.29091,0.16101 -0.58932,0.45337 -0.88032,0.44849 -11.55311,-0.19342 -13.02929,9.07837 -13.1496,16.61645 -0.14685,9.2024 -2.61498,18.0777 -2.32666,27.21778 0.29407,9.32263 -1.86153,11.04449 -12.74419,12.37921 -5.13647,0.62988 -9.89886,0.99847 -13.33447,5.38861 -1.31513,1.68048 -2.80673,1.65234 -4.14835,-0.0107 -4.37205,-5.41937 -10.52527,-6.78095 -16.94247,-7.11469 -4.81335,-0.25024 -6.93846,-3.85681 -6.17644,-7.07324 3.36448,-14.20142 -1.82203,-28.01514 -1.09241,-42.02777 0.12372,-2.3761 -0.90879,-4.30249 -2.82196,-5.53619 -9.37473,-6.04554 -14.637562,-15.20319 -19.300632,-25.29462 m 24.286652,-46.12656 c -5.04572,0.15656 -7.07518,3.66721 -8.3575,7.77179 -1.98281,6.3468 -3.50638,12.84998 -5.75699,19.095 -1.22548,3.40052 -0.48282,5.20932 2.48515,6.82602 2.95769,1.61112 5.39558,3.9364 7.21056,6.78586 3.31896,5.21054 9.12702,7.62851 13.26315,11.95847 1.85245,1.93924 4.60835,1.52859 6.84404,-0.35407 -1.08794,-4.98221 -2.10538,-9.95306 -3.26863,-14.88953 -1.44651,-6.13855 1.7566,-14.35369 7.10871,-17.9295 6.04902,-4.04144 13.27019,-3.89795 18.98974,0.3587 1.44261,1.07364 2.69021,2.44346 4.81674,2.23505 3.00882,-0.29492 5.98887,0.2836 6.83774,3.58707 0.78193,3.04309 -1.61817,4.95602 -3.90526,6.35742 -2.52918,1.5498 -3.94625,3.53424 -3.71289,6.50314 0.49974,6.35779 1.2353,12.75119 -4.51767,17.90555 12.64415,-2.03571 24.38087,-7.66788 36.96701,-5.6246 1.0522,-3.15134 -0.16709,-4.9773 -0.39371,-6.91336 -1.28033,-10.93793 -8.29048,-18.01688 -16.66966,-23.99854 -3.93683,-2.81036 -8.71567,-1.43765 -13.13191,-1.82843 -0.82541,-0.073 -1.64934,-0.2268 -2.45829,-0.41186 -14.87245,-3.40177 -28.90698,-8.84473 -42.35033,-17.43418 m 18.63955,-24.06994 c 1.06633,3.32022 3.33778,5.39016 6.32705,7.19049 3.86089,2.32528 7.3276,5.30508 12.11582,8.85754 -2.51927,0 -3.48274,0.0226 -4.44478,-0.005 -1.64253,-0.0471 -3.62195,-0.51413 -3.81071,1.94812 -0.21859,2.85114 3.73565,8.66773 5.52839,8.45905 1.14745,-0.13351 2.16584,-0.97461 2.03867,-1.85397 -0.76605,-5.29688 3.97383,-9.29834 2.63402,-15.12769 -1.57312,-6.84433 2.22712,-13.2641 5.01733,-19.47195 3.6058,-8.02243 3.67731,-8.01392 -4.58945,-10.88645 -1.29478,-0.44992 -2.65771,-1.16235 -3.39946,0.5615 -0.81695,1.89856 -2.09367,1.74694 -3.65173,1.28442 -1.07315,-0.31857 -2.15146,-1.10465 -3.31816,-0.28464 -5.62244,3.95172 -12.2087,7.29987 -9.88887,16.1583 0.18783,0.71725 -0.30296,1.61218 -0.55812,3.17035 m 40.35972,4.83386 c 2.3369,1.82507 1.53084,-2.88974 3.88764,-1.45212 -0.88541,3.63724 -1.79675,7.46091 -2.75388,11.2731 -0.37782,1.50492 0.0998,2.63733 1.37093,3.41263 0.97241,0.59305 2.34538,0.51718 2.5892,-0.48132 0.84673,-3.46784 4.0034,-4.22724 6.377,-5.88791 1.64037,-1.14771 2.6096,-2.24845 1.82253,-4.5181 -1.32905,-3.8324 2.56614,-7.42386 0.85658,-12.11026 -2.95478,2.56061 -3.00575,5.92221 -4.36516,8.58399 -1.33411,2.61221 -1.26489,5.97995 -4.21942,8.36254 -0.15814,-3.78649 1.25737,-6.67004 1.89601,-9.707 0.58195,-2.76739 3.26335,-5.56207 0.16913,-8.49502 -2.05643,0.94421 -1.48296,3.98077 -4.31273,4.39188 0.19936,-2.71308 -0.5549,-4.95612 -2.33679,-6.77537 -7.64002,1.67786 -15.64867,22.83704 -10.52236,28.50611 3.15621,-3.31366 5.02256,-7.24399 6.32694,-11.54318 0.48117,-1.58591 0.34973,-3.80292 3.21438,-3.55997 m -54.77705,-4.13098 c 0.69153,-1.84824 1.32912,-3.71909 2.09155,-5.5376 0.6167,-1.47092 0.57334,-4.21909 2.25035,-4.03824 3.57001,0.38501 3.02625,-2.82629 2.83438,-3.65713 -0.89153,-3.86063 0.57778,-7.03162 2.45521,-10.39014 -2.05553,-0.64865 -3.4556,-0.39874 -4.95181,0.672 -5.69329,4.07431 -7.21432,10.07937 -7.53202,16.49359 -0.11338,2.28915 -0.68827,5.16058 2.85234,6.45752 M 113.15215,413.14 c -0.19156,1.22538 -1.04277,2.64002 1.52573,3.46357 1.6646,-2.68155 4.09036,-5.06946 3.53568,-9.19611 -3.30478,0.41565 -4.16343,2.68665 -5.06141,5.73254 z"
     id="path1" /><path
     fill="#000000"
     opacity="1"
     stroke="none"
     d="m 203.01369,592.98657 c 2.49344,1.31995 5.03813,2.55323 7.46365,3.98798 1.84157,1.08929 2.53009,2.45068 0.75011,4.41974 -5.70717,6.31384 -16.5602,7.6878 -23.94315,3.38391 -4.42175,-2.57764 -5.3996,-6.87274 -6.92489,-11.76019 -1.74126,3.26977 -3.18633,5.98339 -4.77881,8.97381 5.33699,3.23895 12.01201,4.64386 14.53567,11.16553 -11.36124,9.48016 -26.20027,4.08673 -30.17898,-11.07337 -2.05135,1.88739 -3.95131,3.6355 -6.20754,5.71143 4.87055,2.8161 8.81529,6.04205 11.21207,10.7829 2.11105,4.1756 1.49554,5.30151 -3.03917,5.78473 -8.23386,0.87725 -15.176,-1.41346 -20.25257,-8.70221 -2.55065,2.17175 -4.6164,4.32208 -7.04684,5.91644 -4.68109,3.07086 -9.97623,3.38849 -15.40255,2.7113 -2.95325,-0.36846 -3.59687,-1.77642 -2.47399,-4.45959 2.28935,-5.47046 6.75306,-8.88324 11.50328,-12.07556 -1.07969,-2.72327 -3.4179,-3.81525 -5.70379,-6.57196 -1.29693,9.87945 -6.34978,15.3678 -15.29464,16.58819 -5.40899,0.73792 -10.475759,-0.50323 -15.038831,-4.03045 2.732139,-6.62091 9.057611,-8.28113 14.603321,-11.43439 -1.41169,-2.8056 -2.65306,-5.27271 -4.42124,-8.7868 -2.26028,9.32147 -7.697386,14.0816 -16.309523,14.16943 -6.566154,0.067 -12.162872,-2.56732 -16.352631,-8.09497 4.642846,-5.56684 10.976883,-5.6117 17.014626,-6.36658 0.510902,-2.68573 -0.755791,-4.6543 -1.375328,-6.9989 -7.263527,9.07275 -14.605621,11.09991 -22.921253,6.54388 -6.296597,-3.4497 -9.432602,-8.23047 -8.052223,-12.55908 -7.083466,-2.82507 -12.271061,-7.50354 -14.547558,-15.27154 6.53331,-3.24451 12.261707,-1.27027 18.083534,1.55682 1.692432,-4.00678 1.671734,-8.16467 4.013565,-12.23975 0.583508,-1.24932 0.899086,-1.85345 1.214668,-2.45758 2.746979,-2.51776 4.518997,-1.47015 6.23507,1.39032 4.910377,8.18488 4.076683,15.55121 -3.149826,25.15143 1.045738,1.79444 2.704155,2.06531 5.091804,1.87061 0.652367,-5.9386 0.328003,-12.32697 5.119888,-16.97473 4.51429,1.92987 5.771553,3.53729 9.389916,11.734 8.06163,-0.62426 10.897033,5.68683 14.932191,10.66718 5.00149,-3.05933 8.96421,0.31659 12.88716,2.71472 2.59164,1.58429 4.55738,2.36139 7.96248,1.90155 7.60589,-1.02704 14.37269,1.9079 19.54204,8.06293 3.24702,-1.50678 5.00601,-4.67041 8.15411,-5.88904 4.38554,-1.69757 8.84036,-3.41522 13.5531,-2.04999 2.06223,0.59729 3.06697,-0.22021 4.37286,-1.27783 2.61356,-2.11658 5.55256,-3.56384 8.79104,-4.59155 2.84428,-0.90265 4.47842,-0.44287 4.54745,4.09064 2.31972,-4.60492 3.87502,-8.25922 7.04955,-10.45295 2.57852,-1.78186 4.83285,-6.29199 8.85694,-1.99664 1.71892,-5.29303 3.82802,-10.09729 8.82624,-13.43658 5.83351,4.60052 4.89985,11.21972 5.54789,17.4461 2.16799,0.79236 3.79189,-0.56396 6.56813,-1.32568 -4.44754,-4.73608 -8.10408,-9.45618 -7.57888,-15.9129 0.59179,-7.27552 3.68997,-12.20606 8.59054,-13.57392 1.3234,-5.86108 -1.87454,-13.60058 6.85736,-16.82837 -0.16328,-10.02984 2.72679,-20.5711 -2.87436,-31.39926 8.82746,-0.003 12.99189,4.52786 17.4543,9.29572 3.84221,-4.82868 6.39258,-10.8602 13.06684,-12.14621 6.03007,10.53183 -0.84943,21.69714 -15.10707,24.67773 -0.75664,2.48157 0.64207,4.31165 2.1213,6.56323 3.87177,-2.31958 7.15496,-5.56085 11.60984,-6.51495 1.58909,-0.34033 3.38981,-1.27185 4.79303,-0.0691 1.67001,1.43146 0.69232,3.37829 0.268,5.12872 -1.26251,5.20807 -4.10687,9.39868 -9.13984,13.00739 4.66358,1.22668 3.48143,3.86993 2.53958,6.45086 -2.72423,7.46497 -7.63695,12.30585 -15.7744,13.5531 -4.52321,0.6933 -7.65459,-2.46417 -11.96912,-4.25152 0.5959,3.32147 1.07945,6.01684 1.674,9.33087 6.03239,-1.6861 11.76892,-4.94452 18.29335,-1.38226 -0.37087,4.55627 -3.16374,7.89257 -6.41602,10.6203 -3.13783,2.63171 -5.83978,4.84674 -7.49518,9.17254 -2.90791,7.59882 -13.71226,11.58313 -21.70582,9.43433 -0.96329,-0.25891 -1.91733,-0.55231 -3.45104,-1.17169 -2.19387,-2.35364 -3.81234,-4.36542 -5.56456,-6.5434 -1.31244,2.01569 -2.06343,3.85224 -1.37518,6.40857 2.26054,0.10089 4.51843,0.20172 6.77631,0.30255 m 34.89993,-49.24658 c -2.57175,-1.57031 -5.14348,-3.14062 -7.71521,-4.71088 1.2473,2.82862 0.97821,6.08155 3.21187,8.15894 2.07425,-0.31964 3.51549,-1.27802 4.50334,-3.44806 z"
     id="path2" /><path
     fill="#000000"
     opacity="1"
     stroke="none"
     d="m 313.61011,509.0217 c 1.36932,1.85153 2.69986,2.73715 4.01257,0.51724 4.12906,-6.98254 8.43802,-13.87814 11.59601,-21.53329 -2.37027,-1.99241 -6.33359,-1.36963 -6.34281,-6.02781 -0.0168,-8.46688 0.18558,-9.08883 8.63926,-9.11465 5.32901,-0.0163 10.67447,0.24509 15.9823,-0.093 4.77252,-0.30398 6.34365,1.73917 5.81961,6.14994 -0.11713,0.9858 -0.0941,2.00167 -0.0176,2.99459 0.23938,3.1092 -0.97675,4.84049 -4.27454,4.46607 -4.10385,-0.46597 -6.33145,1.66257 -8.25729,5.03549 -5.11722,8.96222 -10.38761,17.8446 -15.87717,26.58283 -2.20178,3.50469 -2.51977,6.36816 -0.22711,10.01684 6.10977,9.72369 11.94571,19.62293 17.72458,29.54889 1.56039,2.68024 3.5784,3.71246 6.52807,3.49371 3.91861,-0.29052 5.58933,1.27515 5.50684,5.50354 -0.16379,8.3974 0.0593,8.40473 -8.56515,8.40766 -6.99439,0.002 -13.9888,-0.002 -20.98319,-0.007 -3.13916,-0.002 -5.94446,-0.0203 -6.08713,-4.529 -0.2511,-7.93463 -0.0537,-8.61859 5.28977,-9.37902 0.80459,-0.1145 1.60061,-0.289 3.3714,-0.61377 -4.86322,-9.63056 -10.16947,-18.38129 -15.85624,-27.26459 -4.17453,2.91736 -5.19046,6.9646 -7.17849,10.30511 -2.29645,3.85877 -4.37509,7.85468 -6.39459,11.86835 -1.39304,2.76856 -1.50165,4.90521 2.4862,5.83228 6.02417,1.40057 2.94455,6.48358 3.34064,9.9834 0.39697,3.50787 -2.45789,3.78656 -5.10941,3.78918 -6.99435,0.007 -13.99084,-0.0993 -20.98224,0.0458 -3.91113,0.0811 -5.49078,-1.57325 -5.07559,-5.40522 0.14267,-1.31695 0.12555,-2.67114 0.006,-3.99249 -0.29342,-3.24335 1.18854,-4.76459 4.34973,-4.38122 3.07349,0.37262 4.9585,-0.86396 6.48975,-3.48084 6.30606,-10.77643 12.66498,-21.52441 19.19919,-32.16327 1.69959,-2.76721 1.81378,-4.96686 0.12418,-7.76935 -5.24253,-8.69568 -10.35721,-17.4732 -15.30127,-26.3417 -1.98774,-3.56552 -4.37931,-5.63031 -8.69474,-5.10517 -6.00564,0.73084 -4.91699,-3.69863 -5.1524,-7.2597 -0.25302,-3.82736 0.27939,-6.43524 5.18265,-6.26563 7.98391,0.27619 15.98462,0.0493 23.97809,0.0772 2.51666,0.009 5.73278,-0.12411 5.22845,3.51947 -0.48261,3.48655 3.10022,8.74091 -3.62482,10.08661 -0.91211,0.18253 -1.74069,0.78226 -3.3053,1.51575 4.19101,7.09027 8.22217,13.91019 12.45182,20.98624 z"
     id="path3" /><path
     fill="#000000"
     opacity="1"
     stroke="none"
     d="m 402.49878,510.60605 c 1.70541,-7.69284 3.3226,-14.97482 4.96317,-22.36203 -2.74695,-1.77298 -6.82319,-1.1167 -6.76774,-6.134 0.0969,-8.77063 -0.10486,-8.97333 8.6604,-9.01078 3.99872,-0.0171 7.99927,0.0668 11.99582,-0.0279 2.92749,-0.0693 4.35999,1.03873 4.08313,4.12558 -0.16314,1.81903 -0.12249,3.66641 -0.0393,5.49493 0.10766,2.36603 -0.60538,4.03864 -3.28174,3.82294 -3.65097,-0.29422 -4.31851,2.05399 -4.96701,4.88187 -5.91123,25.77704 -11.94455,51.52618 -17.82892,77.30932 -0.84451,3.70032 -2.13617,5.8628 -6.54581,5.6579 -3.71151,-0.17248 -4.74109,-1.98169 -5.46536,-5.08325 -5.44772,-23.32886 -11.00619,-46.63196 -16.52939,-69.94327 -0.57513,-2.42746 -1.26477,-4.83539 -1.68905,-7.28906 -0.54462,-3.14954 -1.87769,-4.83948 -5.4282,-5.28717 -6.13745,-0.77387 -3.14154,-5.88245 -3.60516,-9.20047 -0.44101,-3.15628 1.27774,-4.29172 4.52844,-4.18427 5.31601,0.17582 10.64887,-0.13885 15.97412,-0.26748 3.2009,-0.0773 5.09458,1.06338 4.78229,4.65976 -0.33374,3.84326 1.64505,8.6383 -4.69238,9.71878 -1.53601,0.26193 -1.35278,2.1087 -1.03937,3.43872 4.41702,18.74426 8.85297,37.4841 14.26968,56.24215 2.84473,-12.05047 5.68946,-24.10095 8.62235,-36.56228 z"
     id="path4" /><path
     fill="#000000"
     opacity="1"
     stroke="none"
     d="m 63.177803,551.4043 c -0.350708,0.99957 -0.666286,1.6037 -1.134857,2.51355 -11.955284,11.43823 -25.595558,8.09057 -29.805309,-6.92939 -0.733628,-2.61749 -0.926503,-4.71783 3.456981,-4.9718 -6.670057,-4.85107 -10.437851,-10.54919 -10.045616,-18.92511 6.828236,-0.74951 11.728329,2.60425 16.444035,7.0907 2.186927,-2.034 2.536232,-4.69995 3.809341,-7.30939 -2.711506,-1.03924 -5.411274,0.0386 -7.901085,-1.01172 -7.375704,-3.11114 -12.27096,-13.01196 -10.119217,-20.80554 0.771605,-2.79477 2.328421,-2.77453 4.501004,-1.64575 2.949687,1.53259 5.771137,4.61475 10.024101,11.3313 3.569156,-3.44156 6.880596,-7.20349 11.738155,-8.80191 4.048489,-1.33215 5.856819,-0.15759 4.504231,3.82361 -2.289544,6.73892 -2.436783,13.28695 -1.504967,20.26651 0.924919,6.92791 -2.693333,12.08746 -8.746903,15.52728 -1.261188,0.71668 -2.843299,1.04083 -3.673004,2.62976 0.536129,2.11414 2.262364,2.9607 4.42231,3.84308 2.390343,-3.91431 3.024056,-8.75348 6.711743,-11.95056 3.973289,-3.44458 5.075595,-3.26386 6.79412,1.65216 1.537663,4.39856 1.3653,8.81061 0.524937,13.67322 z"
     id="path5" /><path
     fill="#000000"
     opacity="1"
     stroke="none"
     d="m 33.030266,477.38867 c 1.341095,-3.11618 2.861271,-2.59363 4.775898,-1.02704 4.140926,3.38828 5.574383,8.14032 6.992985,13.79129 2.188316,-1.57882 4.087463,-2.94903 6.109191,-4.40765 -12.352611,-8.73178 -14.445629,-18.14529 -6.319713,-28.15631 6.66756,3.2941 6.172184,10.28757 8.044693,16.31671 5.603474,-2.76743 10.976726,-5.50992 17.27676,-3.63391 0.834122,3.22488 -1.095253,5.3663 -2.789902,7.21957 -2.650818,2.89899 -4.365867,5.71396 -5.146087,9.88581 -1.720925,9.20181 -11.809262,15.5978 -19.775883,13.62051 -7.400505,-1.83679 -12.002348,-11.03073 -10.160996,-20.35626 0.192776,-0.97626 0.557976,-1.91846 0.993054,-3.25272 z"
     id="path6" /><path
     fill="#000000"
     opacity="1"
     stroke="none"
     d="m 524.90405,534.94525 c -5.7998,3.2901 -11.49188,2.32343 -13.23819,-1.93945 -0.58648,-1.4317 -1.05914,-3.12378 0.50504,-4.06574 1.6831,-1.01361 2.6618,0.067 3.29901,1.7605 0.94049,2.49957 3.12805,2.1969 5.08154,1.72534 1.74042,-0.42016 2.24158,-1.95391 1.96692,-3.56262 -0.41394,-2.42468 -2.4397,-2.69232 -4.2583,-2.40558 -6.66244,1.05017 -6.92761,-3.97558 -8.34848,-8.47668 -2.21463,5.10028 -8.23508,8.98596 -3.77487,15.71728 0.90787,1.37018 0.23755,2.70673 -1.40659,3.0055 -2.25912,0.41046 -4.64029,0.88507 -6.3952,-1.30384 2.8714,-7.36139 0.90518,-14.77063 -5.41263,-18.8089 -3.13367,4.97297 -6.26666,9.94477 -9.40411,14.92371 3.72757,2.93396 5.70306,-0.23859 7.98343,-1.59759 2.86426,4.81188 2.0639,6.82592 -2.92438,6.85504 -3.70792,0.0217 -8.74048,1.9032 -10.81494,-1.43714 -2.06809,-3.33001 2.54916,-6.28875 4.13962,-9.44073 1.31894,-2.61389 3.02853,-5.03064 4.6419,-7.65998 -3.61169,-2.12005 -5.6495,-0.0693 -7.47952,1.8924 -2.77731,-0.9718 -2.14905,-2.96606 -1.86111,-4.67053 0.3648,-2.15973 2.2499,-2.27332 3.90255,-2.29401 5.48252,-0.0686 10.96756,-0.0817 16.44937,0.0141 2.17194,0.0379 4.12659,0.62463 3.32319,3.57404 -0.55292,2.02984 0.46411,3.48468 1.64993,5.16326 2.59167,-2.20599 2.02081,-4.84729 1.25873,-7.44586 2.74551,-1.19848 5.1358,-2.07678 7.42199,-0.41174 1.56613,1.14062 2.43723,-0.16821 3.62461,-0.43903 3.64465,-0.83135 7.29339,-1.43615 10.23889,1.73572 1.23401,1.32886 1.84375,3.0445 0.46832,4.47394 -1.57037,1.63214 -2.53515,0.12421 -3.5094,-1.11212 -1.5022,-1.90625 -3.53473,-1.71173 -5.42468,-0.83331 -1.15247,0.5357 -1.44647,1.83282 -1.01154,3.052 0.73945,2.07281 2.61683,1.67547 4.23047,1.79284 7.08698,0.51575 9.02137,4.82337 5.07843,12.21918 z"
     id="path7" /><path
     fill="#000000"
     opacity="1"
     stroke="none"
     d="m 459.07022,556.3114 c -1.41724,-0.72607 -2.50012,-0.23224 -2.45554,0.87226 0.19519,4.83361 -1.86917,9.92675 1.46195,14.42895 0.77869,1.05243 1.2691,2.30981 -0.055,2.97632 -2.30542,1.16034 -4.87635,1.13238 -7.17395,-0.0323 -1.26102,-0.63928 -0.86304,-1.89984 -0.15644,-3.01587 3.18314,-5.02753 0.7443,-10.3706 1.57633,-15.34082 -3.31723,-1.05164 -2.62824,2.82172 -5.06806,2.50983 -2.21002,-1.07917 -1.59063,-3.26477 -1.22634,-5.07978 0.43234,-2.15442 2.47598,-1.89422 4.09268,-1.90454 6.89874,-0.044 13.79794,-0.0187 21.99307,-0.0187 -3.19888,5.41418 -2.67575,10.01928 -2.73227,14.57281 -0.0331,2.66998 0.63864,4.64099 3.81741,4.5932 2.8946,-0.0435 3.72599,-1.85333 3.51435,-4.32428 -0.33381,-3.89734 0.97796,-7.90247 -1.23233,-11.70508 -1.23044,-2.1167 0.43899,-3.05035 2.38427,-3.07165 5.81803,-0.0635 11.63718,-0.0308 17.45581,-0.0139 0.49039,0.001 1.00394,0.0983 1.4668,0.26306 4.40097,1.56659 6.16666,7.1977 4.909,16.37458 -0.57352,4.18481 -3.36591,6.35919 -7.44605,6.8161 -1.80838,0.20251 -3.65591,0.0416 -5.48514,0.0745 -3.82266,0.0688 -5.60424,-0.5318 -3.50222,-5.16815 1.76233,-3.88709 0.65793,-8.52649 0.51757,-12.83429 -0.0468,-1.43585 -1.0177,-2.77893 -2.41903,-2.63422 -1.48834,0.15369 -2.66937,1.3396 -2.65131,3.12812 0.0336,3.32391 0.3017,6.65924 0.10825,9.96856 -0.32682,5.59046 -2.8981,7.79743 -8.29303,7.5307 -4.70014,-0.2323 -6.67887,-2.54712 -6.80976,-7.8974 -0.0851,-3.48126 -0.20999,-6.96191 -0.36422,-10.44073 -0.0108,-0.24292 -0.41318,-0.46845 -0.78601,-0.86371 -1.61567,0.9433 -3.13736,5.90137 -5.4408,0.23651 m 35.07678,14.46954 c 3.91129,-2.33563 5.13535,-11.24322 1.94571,-14.10717 -1.21124,-1.08753 -2.62726,-1.39569 -4.14209,-0.95899 -1.62301,0.4679 -1.62695,1.90094 -1.63418,3.23218 -0.0161,2.96722 0.0179,5.93469 0.018,8.9021 6e-5,2.02881 0.97409,3.0545 3.81253,2.93188 z"
     id="path8" /><path
     fill="#000000"
     opacity="1"
     stroke="none"
     d="m 552.68469,516.98273 c -1.30255,-2.38648 -0.4516,-3.56494 1.65814,-3.75885 2.46308,-0.22638 5.276,-0.64771 6.31195,2.49298 1.09138,3.30859 1.72809,6.76587 2.78547,10.08746 0.73986,2.32428 0.59259,5.06104 2.73156,6.80774 1.17505,0.95959 1.95276,2.17969 0.82819,3.37213 -1.38477,1.4682 -3.40772,1.02405 -5.21576,0.82355 -1.26367,-0.1402 -2.15655,-0.74414 -2.20392,-2.22168 -0.0367,-1.14679 1.19043,-2.10754 0.34778,-3.49719 -1.4939,-1.23261 -3.19202,-0.97498 -5.28375,-0.1062 1.83447,5.755 -1.34674,6.40875 -5.94647,5.78845 -1.6139,-0.21765 -3.30494,0.21448 -4.96027,0.20947 -3.06732,-0.009 -5.78589,-0.0798 -4.44617,-4.71826 0.61865,-2.14179 -0.84564,-4.39881 -2.65442,-6.45978 -1.94964,2.2569 -2.99829,4.30451 -1.2149,6.78674 0.96436,1.34229 1.8219,2.75861 -1.8e-4,3.75818 -1.97791,1.08515 -4.33429,1.01337 -6.18732,-0.28149 -1.78497,-1.24725 0.0303,-2.44965 0.42944,-3.77979 1.48297,-4.94281 1.98749,-10.03503 -0.28027,-14.88549 -0.57129,-1.22199 -1.8938,-2.30219 -0.46204,-3.34632 2.00971,-1.46563 4.474,-1.35998 6.65485,-0.3164 1.53699,0.73547 1.22925,2.15637 0.39563,3.41577 -0.66364,1.00268 -1.13538,2.03357 -0.30579,3.52948 1.84131,-0.61432 3.10785,-1.87445 3.01502,-3.78296 -0.18909,-3.8877 2.34106,-3.82984 4.94092,-3.71643 1.31079,0.0572 2.80712,0.16955 3.17675,1.82159 0.33246,1.48596 -0.96716,1.81024 -1.92688,2.47925 -4.84869,3.37982 -4.55792,11.84717 0.53205,14.78509 1.75769,1.01459 4.03479,0.97681 4.64532,-1.15765 1.29138,-4.51459 3.81488,-8.83319 2.63507,-14.12939 z"
     id="path9" /><path
     fill="#000000"
     opacity="1"
     stroke="none"
     d="m 226.87329,483.83105 c 3.92163,1.1268 6.7112,3.65641 10.39279,5.34958 2.80866,-5.36847 3.88396,-11.88638 10.08554,-14.66076 4.5239,6.03695 4.83885,13.78201 0.95677,19.71322 -3.61131,5.51752 -8.26927,7.49161 -14.51666,6.15225 -7.27167,-1.55889 -12.37092,-7.4837 -13.68469,-15.99325 1.90363,-2.06317 4.15958,-1.31192 6.76625,-0.56104 z"
     id="path10" /><path
     fill="#000000"
     opacity="1"
     stroke="none"
     d="m 222.1272,480.19659 c -4.63774,-2.9757 -7.84613,-6.59195 -9.27964,-11.97277 3.64002,-2.56165 7.31823,-1.39921 10.87284,-0.30918 6.59619,2.02262 6.49832,2.08014 8.45979,-4.22891 1.07982,-3.47315 2.54843,-6.78735 5.92494,-8.70901 5.81606,5.18817 6.90015,14.19143 2.67392,20.89791 -3.91415,6.21128 -10.78421,7.90131 -18.65185,4.32196 z"
     id="path11" /><path
     fill="#000000"
     opacity="1"
     stroke="none"
     d="m 60.985546,456.48889 c 5.837536,-2.21759 11.388638,-4.36142 17.421917,-1.55884 -1.507271,6.55878 -7.905365,12.03458 -14.590546,12.75266 -5.845726,0.6279 -11.819683,-2.61139 -14.008873,-7.5961 -2.989803,-6.80759 -1.110797,-15.13898 4.939156,-20.77738 5.33757,4.56665 5.043575,11.05295 6.238346,17.17966 z"
     id="path12" /><path
     fill="#000000"
     opacity="1"
     stroke="none"
     d="m 91.004074,444.73941 c -5.212089,5.82776 -11.062065,9.17227 -18.725914,6.87421 -5.672836,-1.70108 -8.723156,-5.93055 -9.375221,-11.68402 -0.794583,-7.01102 2.133247,-12.45997 7.707062,-16.93515 5.296936,4.98669 3.291313,11.55075 4.283035,17.86963 4.8172,-1.33207 9.37297,-2.27396 13.930458,-0.80829 2.096863,0.67431 4.497269,1.3406 2.18058,4.68362 z"
     id="path13" /><path
     fill="#000000"
     opacity="1"
     stroke="none"
     d="m 530.34827,493.40875 c 0.75195,1.60327 2.70465,2.93903 0.88623,4.16452 -2.13587,1.43942 -4.69873,1.0701 -7.56671,-0.27655 4.63641,-7.29886 0.0364,-12.75931 -3.65491,-18.38449 -0.67145,-1.02331 -1.513,-1.93957 -0.59204,-3.08041 1.23352,-1.52814 3.03607,-1.01801 4.65606,-0.94965 1.35651,0.0573 2.29096,0.83701 2.07929,2.22879 -0.34192,2.24796 -0.33112,4.30115 1.85339,6.10666 1.54633,-1.1181 2.47596,-2.62405 1.92816,-4.53003 -1.02825,-3.57791 0.99054,-4.01681 3.69025,-3.93375 3.31305,0.1019 7.16168,-0.80767 9.8122,0.5741 3.93615,2.05206 -1.31794,5.29718 -0.30976,8.37866 0.68964,2.10791 0.1106,4.61664 0.18775,6.94321 0.0767,2.31326 1.15381,3.90378 3.65033,3.75253 2.12207,-0.1286 3.66363,-1.6344 3.30664,-3.62442 -0.75293,-4.19751 1.30749,-8.63903 -1.22577,-12.65091 -0.69013,-1.09298 -0.68274,-2.50293 0.63275,-2.97592 1.87665,-0.67468 3.95691,-0.78723 5.82794,0.13828 0.94611,0.46801 1.56366,1.78302 0.86786,2.53524 -3.44806,3.72742 -1.79071,8.21912 -1.98804,12.37537 -0.28381,5.97772 -2.08386,8.15399 -7.50812,8.1962 -5.77569,0.0449 -7.83953,-2.09174 -7.96362,-8.29587 -0.0532,-2.66064 -0.0168,-5.32318 -0.0842,-7.98328 -0.03,-1.18841 -0.25201,-2.37997 -1.64459,-2.76751 -1.50952,-0.42005 -2.65289,0.22793 -3.32587,1.5278 -1.97314,3.81143 -4.53546,7.46435 -3.51519,12.53143 z"
     id="path14" /><path
     fill="#000000"
     opacity="1"
     stroke="none"
     d="m 557.64313,485.09433 c 0.0912,-10.2309 5.81952,-13.146 15.00616,-8.03876 4.71594,-4.10409 10.35724,-2.27695 15.59766,-1.93164 2.99432,0.1973 1.93365,2.85077 0.85742,4.62876 -2.80511,4.63391 -5.67993,9.22564 -8.62176,13.98773 2.46569,1.12243 4.36846,1.47323 5.85284,-0.42618 0.75,-0.95969 1.25012,-2.05588 2.69775,-1.42197 1.32984,0.5824 1.23023,1.86832 1.21582,3.00919 -0.0168,1.33377 -0.0433,2.92987 -1.74493,3.15411 -4.29016,0.56528 -8.69873,0.86594 -12.875,-0.13788 -2.58813,-0.6221 -1.27039,-2.96328 -0.34766,-4.50558 2.62384,-4.3858 5.34308,-8.7146 8.0326,-13.07849 -1.81238,-1.62564 -4.02271,-1.616 -4.66999,-0.30145 -1.56561,3.17938 -5.22906,0.71722 -7.06848,3.2257 -0.68768,0.93778 -2.38824,-0.29055 -2.83649,-1.80484 -0.68975,-2.33032 -2.51763,-2.44235 -4.41204,-2.05133 -1.86841,0.38559 -2.78351,1.77445 -2.82843,3.61814 -0.0646,2.65542 -0.12299,5.32229 0.0539,7.96835 0.12164,1.81912 1.32611,3.07593 3.12964,3.43713 1.87195,0.37485 3.33191,-0.42422 3.89105,-2.27221 0.55396,-1.83112 1.44501,-3.38324 3.4386,-2.24356 1.94305,1.11078 1.48486,3.29623 0.61475,4.902 -1.95374,3.60569 -5.33948,4.19791 -9.03846,3.59964 -3.31811,-0.53662 -5.43841,-2.49582 -5.81854,-5.87231 -0.25903,-2.301 -0.0995,-4.64905 -0.12646,-7.44455 z"
     id="path15" /><path
     fill="#000000"
     opacity="1"
     stroke="none"
     d="m 687.10156,490.01263 c -0.49078,2.79899 1.35791,4.80146 1.23071,7.34281 -2.30609,1.47882 -4.5332,1.30356 -6.97827,-0.0271 1.74091,-6.73221 2.84803,-13.31897 -0.17163,-19.88489 -0.57751,-1.25574 0.36359,-2.31393 1.68311,-2.52032 2.35425,-0.36835 4.75775,-0.51639 6.12378,2.0625 1.62933,3.07592 3.18426,6.19128 5.15491,10.03811 1.25683,-3.61362 0.92254,-6.32123 -0.24982,-9.05734 -0.40943,-0.95557 -0.43573,-2.15656 0.57178,-2.68698 1.68194,-0.88541 3.55999,-0.77573 5.33453,-0.19647 1.09167,0.35632 1.67724,1.46658 1.16022,2.39608 -2.96564,5.33139 -1.23328,11.10285 -1.74128,16.65598 -0.14697,1.60623 0.18317,3.58761 -2.10846,3.9386 -2.11718,0.32434 -2.78002,-1.45923 -3.55236,-2.91056 -1.85041,-3.47714 -3.65918,-6.97644 -5.65326,-10.78903 -1.20368,1.99481 -0.60193,3.66745 -0.80396,5.63864 z"
     id="path16" /><path
     fill="#000000"
     opacity="1"
     stroke="none"
     d="m 535.10614,552.40912 c 6.73236,-1.08991 6.45032,-1.13477 5.42957,5.2807 -0.62134,3.90509 -0.13678,7.97723 -0.29664,11.96844 -0.0749,1.86841 0.82154,4.49396 -1.74176,5.17054 -2.85339,0.75311 -3.36505,-2.12726 -4.3753,-3.89936 -1.72412,-3.02435 -3.29663,-6.13507 -5.56323,-10.3941 -0.46613,4.37311 -0.88855,7.49768 0.29998,10.6051 0.56995,1.49005 1.2071,3.02899 -0.74548,3.76728 -1.71484,0.64837 -3.67535,0.76171 -5.2807,-0.35633 -1.41986,-0.98877 -0.54419,-2.17969 -0.11011,-3.50244 1.95984,-5.97144 1.77136,-11.94336 -0.83539,-18.27612 3.45789,-1.49317 6.46174,-2.18683 8.60303,2.03064 1.46832,2.89203 3.00879,5.74749 4.65619,8.88427 2.37976,-4.13562 -0.6886,-7.46588 -0.0402,-11.27862 z"
     id="path17" /><path
     fill="#000000"
     opacity="1"
     stroke="none"
     d="m 640.86487,486.92517 c 1.46631,-2.81607 1.24121,-5.75464 -0.13092,-8.63046 -0.56824,-1.19095 -0.6836,-2.42893 0.5509,-3.04022 1.68085,-0.83228 3.57758,-0.72461 5.33331,-0.0845 1.04767,0.38199 1.62183,1.44266 1.04566,2.41428 -3.03876,5.12457 -0.99573,10.73285 -1.67066,16.07184 -0.19922,1.5755 0.41346,3.64642 -1.60565,4.30469 -2.29895,0.74945 -3.169,-1.21958 -4.02911,-2.83109 -1.93366,-3.62299 -3.82294,-7.26965 -6.19647,-11.79556 -0.24591,5.35956 -0.51276,9.68509 1.34741,13.93323 -2.6128,1.52581 -4.87335,1.33865 -7.35639,0.0829 1.86609,-6.62735 2.90082,-13.15952 0.0265,-19.68707 -0.56366,-1.28 0.0976,-2.34873 1.43396,-2.65402 2.17688,-0.49729 4.48761,-0.63672 5.78223,1.60824 1.90234,3.29877 3.53455,6.75336 5.46924,10.30774 z"
     id="path18" /><path
     fill="#000000"
     opacity="1"
     stroke="none"
     d="m 450.34875,478.91757 c -1.5642,6.29602 -1.94027,12.2605 0.95014,18.32349 -3.03812,1.35373 -5.63599,1.8779 -8.60455,-0.64337 4.30203,-3.76447 2.49792,-8.52607 2.94247,-13.45191 -2.29593,1.35468 -2.37537,4.16617 -4.44858,4.78284 -2.59219,0.77103 -2.60077,-2.57712 -4.73385,-3.29343 -0.43329,4.33377 -0.85682,8.48224 1.91299,12.4834 -2.99643,1.65802 -5.51364,1.59842 -8.23358,0.17166 2.03308,-6.7124 2.83276,-13.24707 0.0386,-19.7792 -0.44934,-1.05048 0.006,-2.05536 1.11301,-2.38288 1.98319,-0.58688 4.06842,-0.7286 5.49417,1.0933 1.3905,1.77682 2.49741,3.7756 3.77017,5.74081 2.25071,-1.52829 2.36594,-3.991 3.84314,-5.54239 1.54285,-1.6203 3.47547,-2.10925 5.47034,-1.40558 1.89093,0.66702 1.76633,2.14591 0.4855,3.90326 z"
     id="path19" /><path
     fill="#000000"
     opacity="1"
     stroke="none"
     d="m 472.6781,479.48895 c -1.63684,1.3418 -1.80716,2.88465 -0.75024,4.13105 1.79657,2.11868 3.63009,-0.4018 5.71838,-0.29612 1.63739,1.65338 0.94421,3.45679 0.31589,5.28421 -7.00449,-0.55377 -7.14106,-0.42971 -6.05121,5.47657 3.06348,0.9819 5.8353,0.84988 7.49423,-2.60569 5.99185,3.52414 -1.64963,9.17002 3.36774,12.38306 -2.96723,1.84711 -5.53592,1.61206 -5.77567,-1.27081 -0.38067,-4.57706 -3.0715,-4.28406 -6.17389,-4.24967 -1.77816,0.0197 -3.6839,0.43598 -5.65197,-1.15362 1.38671,-3.15229 1.8497,-6.62113 1.75726,-10.23313 -0.0933,-3.64416 -0.0524,-7.24441 -2.39737,-11.12738 5.41135,-1.82571 10.63098,-1.63931 15.40619,-0.548 3.19498,0.73013 2.52954,3.95288 0.36154,6.53226 -2.38684,-1.22849 -4.36957,-3.4358 -7.62088,-2.32273 z"
     id="path20" /><path
     fill="#000000"
     opacity="1"
     stroke="none"
     d="m 469.26251,532.90106 c -0.10672,-2.40594 -0.83661,-4.14386 -2.89084,-5.19562 -2.95889,2.63593 0.461,5.22358 -0.0484,8.02948 -2.31964,1.68189 -4.68808,1.55146 -7.71502,-0.13903 2.76114,-4.2168 2.09655,-8.82886 2.0982,-13.3559 6.4e-4,-1.78589 0.10764,-3.52472 -1.12295,-5.20044 -1.81638,-2.47345 -0.26709,-3.60016 2.17205,-3.89526 1.31153,-0.15863 2.65091,-0.15046 3.9758,-0.12336 3.43567,0.0701 7.27106,-0.64355 9.28586,3.18793 1.90525,3.62329 1.22946,7.0141 -1.59079,10.05078 -2.07437,2.23365 -0.10351,3.99103 1.02277,5.70899 0.781,1.1914 2.51758,2.11395 1.18283,3.76507 -1.02872,1.27253 -2.66843,1.12604 -4.17197,0.91809 -2.01578,-0.27887 -3.02505,-1.26428 -2.19754,-3.75073 m -3.98752,-13.16455 c -0.01,1.86224 -0.16882,3.81714 2.56781,3.86188 1.63974,0.0268 2.96228,-0.5249 3.52234,-2.15643 0.45301,-1.31971 0.50867,-2.8772 -0.87597,-3.52302 -1.80136,-0.84014 -3.84861,-1.34588 -5.21418,1.81757 z"
     id="path21" /><path
     fill="#000000"
     opacity="1"
     stroke="none"
     d="m 570.99591,553.2832 c 2.83374,-2.59454 5.39606,-1.5708 8.20844,-0.58014 -0.35383,1.12409 -0.35462,1.75068 -0.66578,2.02369 -6.75592,5.92779 -7.05029,8.82489 -1.3598,15.79937 0.92517,1.13391 2.72895,2.00171 1.48828,3.64606 -1.40661,1.86426 -3.67242,1.11926 -5.58612,0.90259 -1.8468,-0.20905 -2.52105,-1.49768 -1.96911,-3.26105 0.85009,-2.716 -0.30011,-4.80621 -2.06818,-7.10529 -2.69824,1.91541 -2.28229,4.13324 -1.02838,6.44727 0.6784,1.25208 1.32623,2.64008 -0.16657,3.49805 -1.96063,1.12683 -4.3432,1.07232 -6.2456,0.0939 -1.73602,-0.89294 -0.61151,-2.35291 0.0256,-3.80988 2.00452,-4.5838 1.61389,-9.56359 0.45807,-14.1278 -1.27557,-5.03687 -1.40112,-5.48096 3.76551,-5.08795 0.99023,0.0753 2.02252,0.051 2.76153,1.35827 0.73316,2.08759 -2.54986,3.86145 -0.84015,6.58868 2.01477,-1.544 3.58374,-3.19207 3.22223,-6.38574 z"
     id="path22" /><path
     fill="#000000"
     opacity="1"
     stroke="none"
     d="m 593.56946,570.13281 c 0.25299,-5.95477 1.61084,-11.61426 -1.93982,-17.4505 5.40674,-1.72455 10.54547,-1.40063 15.40155,-0.5506 3.02252,0.52918 1.90417,3.4975 1.31561,5.59754 -2.63904,0.70593 -3.59936,-2.17487 -5.77637,-1.76953 -1.37304,0.25567 -3.17706,-0.74335 -3.91211,1.13879 -0.3175,0.81281 -0.25042,2.11102 0.21009,2.81934 0.83972,1.29126 2.31463,0.95813 3.64007,0.64685 0.77265,-0.18146 1.55695,-0.3136 2.19843,-0.44074 1.82306,1.83325 1.26819,3.47034 0.51648,5.12012 -2.25311,1.02917 -5.24652,-2.37097 -6.64203,1.31085 -0.46155,1.21765 -0.64087,2.8689 0.66272,3.66345 3.06506,1.86811 5.60321,-0.21173 8.06586,-1.67877 2.932,4.27234 2.16467,6.47754 -2.23749,6.70325 -3.14746,0.16131 -6.31073,0.0701 -9.4657,0.0192 -3.92432,-0.0634 -4.16144,-1.89904 -2.03729,-5.12927 z"
     id="path23" /><path
     fill="#000000"
     opacity="1"
     stroke="none"
     d="m 713.73975,483.30841 c 3.36786,0.0862 2.50817,2.3443 2.30218,3.96637 -0.21509,1.6944 -1.54687,1.8996 -3.0459,1.44382 -1.84088,-0.5597 -3.74255,-0.9451 -4.39538,1.5867 -0.32416,1.25723 -0.60321,2.87033 0.74987,3.63962 1.82636,1.03839 3.97828,0.9086 5.64368,-0.27112 1.10523,-0.78296 1.56909,-2.9104 3.40808,-1.59806 1.38507,0.98838 0.93836,2.73169 0.74732,4.18058 -0.26337,1.99701 -1.8974,2.03784 -3.40863,2.07763 -1.99079,0.0524 -3.9859,0.0932 -5.97492,0.0215 -2.13647,-0.0771 -4.73889,0.42486 -6.29797,-0.60166 -2.75067,-1.81109 1.26813,-3.59866 0.84662,-5.57443 -0.98877,-4.63422 1.25494,-9.54864 -1.36158,-14.0527 -1.12793,-1.94165 -0.34179,-3.27201 1.90955,-3.34162 3.64838,-0.11291 7.30243,-0.0938 10.95319,-0.054 1.54748,0.0169 3.07183,0.32809 3.33502,2.25345 0.19971,1.46032 0.62469,3.11514 -0.64728,4.23562 -1.71234,1.5083 -2.56549,-0.36792 -3.67914,-1.18667 -0.38354,-0.28205 -0.8891,-0.51957 -1.35327,-0.54853 -1.60846,-0.10046 -3.39184,-0.67791 -4.55847,1.02069 -0.60107,0.87516 -0.6499,1.97294 0.017,2.80802 1.37921,1.72684 2.948,0.89584 4.81,-0.005 z"
     id="path24" /><path
     fill="#000000"
     opacity="1"
     stroke="none"
     d="m 671.3634,475.23596 c 2.74805,3.37784 2.87452,7.33942 4.05158,10.93738 0.62018,1.89548 0.87494,3.93045 1.65527,5.74753 0.68817,1.60245 1.87744,2.98971 2.83606,4.45773 -2.81287,2.35272 -2.81287,2.35272 -7.4425,1.15134 -1.35511,-1.57569 0.65777,-3.20154 -0.11017,-4.8873 -1.83911,-1.42252 -3.63049,-0.8458 -5.29511,0.045 -1.13672,1.64749 0.83832,3.0014 -0.17138,4.85633 -0.96015,1.31549 -2.76227,0.78848 -4.32062,0.6925 -2.30969,-0.14227 -3.26337,-0.95609 -1.75263,-3.47772 3.14319,-5.24668 5.06202,-10.59741 3.99463,-17.19223 -0.75909,-4.69004 3.79627,-2.28134 6.55487,-2.33051 z"
     id="path25" /><path
     fill="#000000"
     opacity="1"
     stroke="none"
     d="m 485.08646,493.99295 c 0.34982,-5.75345 2.00091,-11.2312 -1.14597,-16.37314 -0.68146,-1.11343 -0.13684,-2.56439 1.29968,-2.64148 3.94074,-0.21142 8.03983,-1.22717 11.76618,0.70237 2.78701,1.44317 4.55533,3.80529 4.35321,7.26299 -0.13581,2.323 -0.009,4.66007 -0.0795,6.98844 -0.17328,5.73282 -3.4548,8.78299 -9.22238,8.60986 -1.82956,-0.0549 -3.66281,-0.0933 -5.48541,-0.24603 -2.92951,-0.24548 -3.43021,-1.62247 -1.48584,-4.30301 m 11.82849,-4.02972 c -0.0353,-2.48514 0.0371,-4.97791 -0.13852,-7.4531 -0.15103,-2.12915 -1.47696,-3.2297 -3.63938,-3.28412 -2.46518,-0.0621 -3.087,1.48264 -3.10809,3.54483 -0.0237,2.32144 -0.12985,4.64856 -0.007,6.96289 0.0905,1.70017 -0.65109,4.08072 1.78601,4.60871 2.64252,0.57248 4.45096,-0.78757 5.1066,-4.37921 z"
     id="path26" /><path
     fill="#000000"
     opacity="1"
     stroke="none"
     d="m 452.34247,513.30994 c 2.07452,0.56231 3.42654,1.5216 4.26565,3.02826 0.77405,1.38983 0.97889,3.03649 -0.28814,4.14184 -1.58792,1.38513 -2.71106,0.24646 -3.5033,-1.22156 -1.20776,-2.23785 -3.19681,-2.2135 -5.18027,-1.59845 -2.1282,0.65985 -2.3602,2.56079 -2.35537,4.47089 0.005,1.99329 0.0233,3.98657 0.0225,5.97986 -9.8e-4,2.19311 0.63022,3.98773 3.06759,4.43634 1.82715,0.33618 3.30387,-0.2923 4.06443,-2.07782 1.05945,-2.48706 -1.12265,-3.05286 -2.48893,-4.11322 -0.22601,-0.17535 -0.28402,-0.5672 -0.52423,-1.08398 1.47431,-2.13459 3.70862,-1.77717 5.69553,-1.26703 2.28708,0.58715 1.9885,2.7572 2.06857,4.5578 0.34131,7.67437 0.33686,7.67456 -7.52932,8.31616 -5.04444,0.41144 -8.20405,-2.495 -8.61142,-8.06751 -0.1327,-1.81469 0.0284,-3.65094 0.0579,-5.47735 0.13708,-8.48383 2.39087,-10.58795 11.2388,-10.02423 z"
     id="path27" /><path
     fill="#000000"
     opacity="1"
     stroke="none"
     d="m 506.54712,551.71704 c 3.42105,-0.0153 6.41284,-0.11859 9.39538,0.003 4.48139,0.18335 5.01978,1.25836 3.21827,6.08801 -2.23212,0.77454 -3.2024,-2.14551 -5.32642,-1.87365 -1.3977,0.17895 -3.11597,-0.79279 -4.00378,0.96356 -0.31571,0.62463 -0.1944,1.66382 0.0943,2.36218 0.72825,1.7616 2.24308,1.65991 3.79716,1.2937 0.77239,-0.18201 1.56304,-0.28644 2.26422,-0.4115 1.54248,1.8064 1.56164,3.4361 0.43408,5.12988 -6.45401,-0.46795 -6.61267,-0.33746 -6.1308,5.03516 3.07513,1.68347 5.64313,0.0467 8.0647,-1.45746 2.44507,1.14606 2.13189,3.03302 1.55157,4.75293 -0.5935,1.75885 -2.34967,1.55341 -3.81952,1.63642 -0.99316,0.0561 -1.99255,0.0634 -2.98681,0.0271 -2.64466,-0.0964 -5.7009,0.57605 -7.84125,-0.52265 -3.81241,-1.95709 0.97491,-4.341 0.47296,-6.83764 -0.85635,-4.25971 1.25623,-8.85138 -1.73383,-12.98841 -1.34069,-1.85504 -0.009,-3.04992 2.54981,-3.20111 z"
     id="path28" /><path
     fill="#000000"
     opacity="1"
     stroke="none"
     d="m 605.62573,492.23151 c 3.409,-0.14389 2.58289,2.121 2.54468,3.79245 -0.0383,1.67849 -1.31665,2.18927 -2.76349,2.24289 -1.9967,0.0739 -3.9992,0.13937 -5.99432,0.0693 -2.3053,-0.0809 -4.98542,0.79608 -6.82514,-0.6384 -2.61474,-2.03869 1.31415,-3.54998 1.06452,-5.65042 -0.54041,-4.54724 1.19934,-9.27951 -1.26569,-13.6947 -1.33789,-2.3963 0.0294,-3.42694 2.302,-3.52167 2.99439,-0.12475 5.99811,-0.1781 8.99329,-0.0954 4.9657,0.13714 5.71081,1.6687 3.21509,6.87777 -2.51062,-1.07474 -4.85883,-3.8446 -7.94428,-1.68832 -1.06573,0.74478 -1.10321,2.15726 -0.55871,3.20691 1.57031,3.02667 3.8667,-0.31562 5.89032,0.57416 1.42212,1.48522 1.21185,3.11587 0.19348,4.7753 -1.97522,1.12875 -4.94464,-1.93134 -6.12793,1.48474 -0.47357,1.36737 -0.72913,3.27053 0.83093,4.08456 2.3288,1.21518 4.52545,0.66025 6.44525,-1.81921 z"
     id="path29" /><path
     fill="#000000"
     opacity="1"
     stroke="none"
     d="m 515.59485,482.42352 c -2.45392,3.93119 -4.70349,7.54828 -7.08768,11.38181 3.68808,1.86462 6.00693,0.14783 7.91641,-2.39584 2.90247,5.30813 2.24799,6.98394 -2.48236,6.86651 -3.71051,-0.0921 -8.78952,1.95706 -10.83398,-1.15521 -2.3432,-3.56705 2.63,-6.52625 4.19937,-9.8421 1.12253,-2.37183 2.65808,-4.54813 4.09369,-6.95304 -3.34387,-2.63989 -5.17444,0.12305 -6.84937,1.86496 -2.92199,-1.32583 -2.59527,-3.33566 -2.10824,-5.27914 0.60159,-2.4003 2.66699,-2.1023 4.46289,-2.15302 1.65985,-0.0469 3.3338,-0.12845 4.98056,0.0271 2.03781,0.19254 4.70657,-0.96087 5.87021,1.47101 1.06488,2.22562 -0.92243,4.01013 -2.1615,6.16693 z"
     id="path30" /><path
     fill="#000000"
     opacity="1"
     stroke="none"
     d="m 430.75958,553.97308 c 3.16571,-3.29553 6.80228,-2.70752 10.08158,-1.77417 3.28634,0.93537 4.57098,3.38422 2.85723,6.59455 -2.66802,0.34253 -3.06692,-1.84687 -4.4364,-2.64551 -1.39447,-0.81329 -2.81659,-1.03937 -4.22546,-0.12799 -1.0307,0.66681 -1.7645,1.61658 -1.42093,2.92328 0.4866,1.8507 2.09281,1.83276 3.59384,2.00708 6.65311,0.77234 8.65613,3.04669 7.64026,8.61542 -0.86536,4.74371 -5.00384,6.96514 -10.40704,5.51281 -2.41962,-0.65045 -4.13416,-2.14807 -4.60404,-4.70031 -0.20624,-1.12 -0.33597,-2.49 0.89237,-3.12067 1.31225,-0.67377 2.18072,0.0704 2.62555,1.38367 0.5621,1.65954 1.84988,2.26129 3.48407,2.26776 2.009,0.008 3.68585,-0.47565 3.79223,-2.92768 0.0984,-2.26934 -1.4151,-2.62011 -3.23684,-2.85534 -7.79972,-1.00696 -9.01633,-2.95691 -6.63642,-11.1529 z"
     id="path31" /><path
     fill="#000000"
     opacity="1"
     stroke="none"
     d="m 547.62067,551.96606 c 3.52081,-0.2467 6.7929,-1.11889 9.40576,1.42713 1.84949,1.80231 2.89673,4.30835 0.78808,6.11224 -2.25994,1.93329 -2.79205,-0.76947 -3.63263,-2.30908 -0.80944,-1.48267 -2.28082,-1.90778 -3.87298,-1.5755 -1.84955,0.38599 -2.88941,1.62646 -2.94361,3.51361 -0.0763,2.65808 -0.0453,5.3194 -0.0443,7.97937 7.4e-4,1.84149 0.61035,3.31995 2.63471,3.64532 1.88525,0.30298 3.77399,0.27295 4.54559,-1.95507 0.50879,-1.46936 0.92865,-3.28644 2.90027,-2.31323 1.96289,0.96881 1.80579,3.02703 1.13696,4.8374 -1.67669,4.53857 -9.43341,5.60132 -13.23022,1.85412 -4.21521,-4.16015 -3.00256,-17.59851 2.31238,-21.21631 z"
     id="path32" /><path
     fill="#000000"
     opacity="1"
     stroke="none"
     d="m 217.17252,449.20724 c 0.31056,-1.81195 0.14912,-3.39367 1.39987,-4.47726 7.84736,0.59735 13.4067,10.63083 11.98683,18.24341 -0.5919,3.17349 -2.4623,3.12826 -4.70537,1.85904 -5.90539,-3.34162 -8.16574,-8.80435 -8.68133,-15.62519 z"
     id="path33" /><path
     fill="#000000"
     opacity="1"
     stroke="none"
     d="m 87.871674,415.65301 c 2.373062,-0.79516 2.957801,0.35862 3.319198,2.06028 1.308182,6.15982 -2.290962,14.18771 -7.799942,17.68689 -3.298637,2.09518 -5.069809,0.96109 -5.440468,-2.49677 -0.845016,-7.8833 3.138695,-13.22162 9.921212,-17.2504 z"
     id="path34" /><path
     fill="#000000"
     opacity="1"
     stroke="none"
     d="m 624.3822,491.49457 c 2.92566,0.66897 2.74054,2.68948 2.33356,4.68509 -0.44141,2.16418 -2.24426,2.20254 -3.93366,2.15448 -4.08312,-0.11606 -8.22192,0.40432 -12.64849,-0.55152 2.15515,-7.00171 3.12451,-13.56433 0.23199,-20.0975 -0.47632,-1.07587 -0.0692,-2.12882 0.94995,-2.48285 2.06934,-0.71881 4.30921,-0.92737 6.27136,0.16855 1.14081,0.63724 1.05292,1.95789 0.2696,3.06985 -2.98944,4.24356 -1.00684,9.03348 -1.45508,13.55545 -0.12677,1.27915 0.56067,2.16703 1.93774,2.4849 2.71607,0.62695 4.4303,-0.64212 6.04303,-2.98645 z"
     id="path35" /><path
     fill="#000000"
     opacity="1"
     stroke="none"
     d="m 460.30902,482.63544 c 0.16388,5.12097 -0.90579,9.95602 2.05274,14.47928 -2.93647,1.87365 -5.4571,1.29928 -8.26911,0.51406 2.26575,-6.99557 3.05618,-13.51458 0.16028,-20.03442 -0.47019,-1.05853 0.023,-2.09094 1.08591,-2.39783 2.07522,-0.59921 4.27288,-0.93457 6.23053,0.27982 0.93634,0.58087 0.94284,1.77753 0.30203,2.66287 -0.89633,1.23822 -1.67566,2.46594 -1.56238,4.49622 z"
     id="path36" /><path
     fill="#000000"
     opacity="1"
     stroke="none"
     d="m 649.9602,476.83954 c 1.60181,-3.0268 4.09919,-2.0268 6.26697,-1.84323 1.63275,0.13821 1.97974,1.37286 1.57892,2.95077 -2.27222,8.94541 -2.24512,12.20896 0.0529,19.09891 -1.24518,1.87039 -3.21405,1.27655 -4.91724,1.21509 -2.54345,-0.0917 -3.1369,-0.87024 -2.21966,-3.78403 1.78466,-5.66974 2.06311,-11.6004 -0.76191,-17.63751 z"
     id="path37" /><path
     fill="#000000"
     opacity="1"
     stroke="none"
     d="m 588.78973,552.38873 c -1.58386,4.74213 -1.58819,9.43982 -1.4422,14.15314 0.0458,1.47894 -0.16803,3.01477 0.88465,4.2973 0.99902,1.2171 2.00586,2.76892 0.32348,3.84613 -1.87335,1.19953 -4.30261,1.03864 -6.23913,0.0967 -2.20215,-1.07129 -0.67108,-2.63183 -0.10681,-4.18493 1.62072,-4.4607 2.10302,-9.13172 0.51696,-13.67084 -1.74456,-4.99274 -1.58892,-5.39649 3.84101,-5.17432 0.65332,0.0267 1.29907,0.23651 2.22204,0.63684 z"
     id="path38" /><path
     fill="#000000"
     opacity="1"
     stroke="none"
     d="m 438.78244,515.77734 c -3.40781,5.84699 -2.05725,11.59748 -0.9191,17.32672 0.15271,0.76886 0.51624,1.49579 0.76789,2.20209 -1.77677,1.75122 -3.78708,1.60211 -5.74793,1.39246 -1.51508,-0.16205 -2.41486,-0.93433 -2.0274,-2.69556 2.40002,-10.90973 2.38983,-10.91199 -0.0433,-19.83887 2.85465,-0.13684 5.77963,-2.63913 7.96985,1.61316 z"
     id="path39" /></g>
</svg>
